<svg width="15" height="26" viewBox="0 0 15 26" fill="none" xmlns="http://www.w3.org/2000/svg"><path d="M13.5 0h-12C1.102 0 .72.196.44.544.157.892 0 1.364 0 1.857v23.347c0 .142.03.281.089.404a.733.733 0 00.242.292c.1.07.214.103.329.1a.558.558 0 00.324-.121l6.515-5.04 6.517 5.04c.098.075.21.117.324.12a.547.547 0 00.329-.099c.1-.069.184-.17.242-.292a.946.946 0 00.089-.404V1.857c0-.492-.158-.965-.44-1.313C14.28.196 13.899 0 13.5 0zm-12 1.592h12c.057 0 .111.028.152.078a.3.3 0 01.062.187v15.544L7.84 12.855a.555.555 0 00-.341-.12.555.555 0 00-.34.12L1.285 17.4V1.857a.3.3 0 01.062-.187.196.196 0 01.152-.078zm6.34 17.63a.555.555 0 00-.341-.12.555.555 0 00-.34.12l-5.873 4.545v-4.489L7.5 14.47l6.214 4.808v4.49L7.84 19.222z" fill="#403D56"/><path d="M4.688 7.141h5.803M7.59 4.411v5.46" stroke="#403D56" stroke-linecap="round" stroke-linejoin="round"/></svg>