<svg width="23" height="40" viewBox="0 0 23 40" fill="none" xmlns="http://www.w3.org/2000/svg"><path d="M20 0H2.222C1.632 0 1.068.301.651.837.234 1.373 0 2.099 0 2.857v35.918c0 .219.045.433.132.622.086.188.21.343.359.45A.79.79 0 00.977 40a.809.809 0 00.48-.186l9.652-7.755 9.656 7.755a.81.81 0 00.48.186.79.79 0 00.487-.154 1.11 1.11 0 00.358-.45c.087-.188.132-.402.132-.62V2.856c0-.758-.234-1.484-.65-2.02C21.154.3 20.588 0 20 0zM2.222 2.449H20c.084 0 .165.043.224.12.06.076.093.18.093.288v23.914l-8.703-6.994a.804.804 0 00-.505-.186.804.804 0 00-.504.186l-8.7 6.992V2.857c0-.108.033-.212.093-.289.06-.076.14-.12.224-.12zm9.392 27.124a.804.804 0 00-.505-.186.803.803 0 00-.504.186l-8.7 6.992v-6.906l9.206-7.398 9.206 7.398v6.906l-8.703-6.992z" fill="#F8F8F8"/></svg>