<svg width="40" height="40" viewBox="0 0 40 40" fill="none" xmlns="http://www.w3.org/2000/svg"><path d="M1.667 16.665A1.667 1.667 0 010 14.998V1.667A1.667 1.667 0 011.667 0H15a1.667 1.667 0 011.667 1.667v13.33A1.667 1.667 0 0115 16.665H1.667zm23.335 0a1.667 1.667 0 01-1.667-1.667V1.667A1.667 1.667 0 0125.002 0h13.331A1.667 1.667 0 0140 1.667v13.33a1.667 1.667 0 01-1.667 1.668h-13.33zM1.667 40A1.667 1.667 0 010 38.333V25a1.667 1.667 0 011.667-1.667H15A1.667 1.667 0 0116.667 25v13.334A1.667 1.667 0 0115.001 40H1.667zm23.335 0a1.667 1.667 0 01-1.667-1.667V25a1.667 1.667 0 011.667-1.667h13.331A1.667 1.667 0 0140 24.999v13.334A1.667 1.667 0 0138.333 40h-13.33z" fill="#F8F8F8"/></svg>