<svg width="42" height="42" viewBox="0 0 42 42" fill="none" xmlns="http://www.w3.org/2000/svg"><path d="M15.75 7.875H31.5V10.5H15.75V7.875zm0 5.25H31.5v2.625H15.75v-2.625zm0 5.25H31.5V21H15.75v-2.625zm0 5.25H31.5v2.625H15.75v-2.625zm0 5.25H31.5V31.5H15.75v-2.625zm-7-21h3.5V10.5h-3.5V7.875zm0 5.25h3.5v2.625h-3.5v-2.625zm0 5.25h3.5V21h-3.5v-2.625zm0 5.25h3.5v2.625h-3.5v-2.625zm0 5.25h3.5V31.5h-3.5v-2.625z" fill="#0E2B50"/><path d="M38.5 0h-35c-.928 0-1.819.277-2.475.769C.37 1.26 0 1.929 0 2.625v36.75c0 .696.369 1.364 1.025 1.856.657.492 1.547.769 2.475.769h35c.928 0 1.819-.277 2.475-.769.656-.492 1.025-1.16 1.025-1.856V2.625c0-.696-.369-1.364-1.025-1.856C40.318.277 39.428 0 38.5 0zm0 39.375h-35V2.625h35v36.75z" fill="#0E2B50"/></svg>