<svg width="42" height="42" viewBox="0 0 42 42" fill="none" xmlns="http://www.w3.org/2000/svg">
<g clip-path="url(#clip0_520_2)">
<path d="M31.2375 0C27.825 0 25.9875 1.05 24.9375 2.1C23.8875 1.05 22.05 0 18.375 0C9.45 0 7.875 5.25 7.875 5.25V15.75H0V42H18.375V29.925L22.3125 29.4C22.3125 29.4 22.8375 28.6125 23.1 31.2375H26.5125C26.775 28.6125 27.5625 29.4 27.5625 29.4L42 31.2375V5.5125C42 5.5125 40.425 0 31.2375 0ZM2.625 18.375H15.75V23.625H2.625V18.375ZM15.75 26.25V28.875H13.125V26.25H15.75ZM10.5 26.25V28.875H7.875V26.25H10.5ZM5.25 39.375H2.625V36.75H5.25V39.375ZM5.25 34.125H2.625V31.5H5.25V34.125ZM5.25 28.875H2.625V26.25H5.25V28.875ZM10.5 39.375H7.875V36.75H10.5V39.375ZM10.5 34.125H7.875V31.5H10.5V34.125ZM15.75 39.375H13.125V36.75H15.75V39.375ZM15.75 34.125H13.125V31.5H15.75V34.125ZM23.625 24.9375C21.2625 24.675 20.2125 24.15 18.375 24.15V15.75H10.5V5.5125C10.5 4.4625 12.6 1.575 18.375 1.575C23.1 1.575 23.3625 3.675 23.3625 4.2V24.9375H23.625ZM39.375 25.9875C36.75 24.9375 36.4875 24.15 32.8125 24.15H32.2875C29.6625 24.15 28.875 24.675 26.25 25.2V4.725C26.25 4.2 26.775 1.8375 31.2375 1.8375C37.275 1.8375 39.375 4.2 39.375 5.5125V25.9875Z" fill="#0E2B50"/>
</g>
<defs>
<clipPath id="clip0_520_2">
<rect width="42" height="42" fill="white"/>
</clipPath>
</defs>
</svg>
