<svg width="40" height="40" viewBox="0 0 40 40" fill="none" xmlns="http://www.w3.org/2000/svg"><path stroke="#0E2B50" d="M25.038 28v12M19 33.962h12"/><path d="M4.1 33.211c-.938-.646-1.781-4.721-1.082-5.105.852-.465.792.968 2.605 2.738 1.813 1.771 7.476 1.059 8.906 1.537 1.575.528-7.377 2.937-10.43.83z" fill="#0E2B50"/><path d="M5.624 30.846C4.044 24.35 4.8 20.78 5.7 18.394 7.28 14.197 18.717 4.842 26.922 1.907c2.17-.777 9.035-1.898 12.94-1.898.681 2.703-1.356 7.786-1.871 8.715-1.166 2.098-4.118 4.953-9.99 10.99-.291.3-5.915-.533-6.212-.22-.326.342 4.673 1.83 4.339 2.189a119.72 119.72 0 00-2.62 2.906c-.199.227-9.603-1.07-9.803-.837-.268.313 8.667 2.158 8.395 2.48-.745.887-1.5 1.813-2.263 2.779-1.993 2.524-14.213 1.835-14.213 1.835z" fill="#0E2B50"/><path d="M21.55 13.672c1.834 1.12 6.159 2.252 9.607 2.807 2.193-2.245 3.812-3.915 4.971-5.25-2.61-.567-6.634-1.506-8.65-2.419l-.943-.467-5.63 4.834.644.495z" fill="#0E2B50"/><path d="M39.964.605c-.02-.2-.055-.4-.102-.596-.437 0-.915.017-1.416.042-3.972.206-9.598 1.166-11.525 1.856a26.39 26.39 0 00-1.223.484 33.34 33.34 0 00-1.686.758c.41 1.717 1.301 3.645 2.087 4.652a83.545 83.545 0 00-5.587 4.77C13.978 18.654 8.934 25.173 5.486 30.239c.046.201.088.398.138.607 0 0 .253.014.681.03 1.712-2.652 6.59-9.55 15.245-17.203a105.793 105.793 0 015.927-4.862c2.016.912 6.04 1.85 8.65 2.419.373-.428.7-.826.981-1.192.365-.477.658-.91.882-1.314.48-.865 2.275-5.325 1.974-8.119z" fill="#0E2B50"/><path d="M39.862.01c-.427 0-.868-.004-1.315-.01-4.523 2.172-8.676 4.861-12.446 7.801-.786-1.008-1.677-2.935-2.088-4.652a49.167 49.167 0 00-5.18 2.943c.356 2.216.984 5.074 1.68 6.479C7.31 24.862.16 38.96.061 39.16a.582.582 0 00.258.778.576.576 0 00.776-.26c.138-.275 14.032-27.683 38.89-39.085a8.944 8.944 0 00-.123-.585z" fill="url(#paint0_linear_634_19)"/><defs><linearGradient id="paint0_linear_634_19" x1="37.524" y1="-.734" x2="-.154" y2="39.447" gradientUnits="userSpaceOnUse"><stop stop-color="#0E2B50"/><stop offset="1" stop-color="#403D56" stop-opacity=".9"/></linearGradient></defs></svg>