<svg width="30" height="22" viewBox="0 0 30 22" fill="none" xmlns="http://www.w3.org/2000/svg"><g clip-path="url(#clip0_684_127)"><path d="M6.818 21.892V10.617L3.223 7.418 0 5.643v14.259c0 1.1.917 1.99 2.046 1.99h4.772z" fill="#4285F4"/><path d="M23.182 21.892h4.772c1.132 0 2.046-.892 2.046-1.99V5.643l-3.651 2.033-3.167 2.941v11.275z" fill="#34A853"/><path d="M6.818 10.617L6.33 6.212l.49-4.217L15 7.965l8.182-5.97.547 3.989-.547 4.633L15 16.586l-8.182-5.969z" fill="#EA4335"/><path d="M23.182 1.995v8.622L30 5.643V2.99C30 .53 27.112-.873 25.09.603l-1.908 1.392z" fill="#FBBC04"/><path d="M0 5.643l3.136 2.288 3.682 2.686V1.995L4.91.603C2.884-.873 0 .53 0 2.99v2.653z" fill="#C5221F"/></g><defs><clipPath id="clip0_684_127"><path fill="#fff" d="M0 0h30v22H0z"/></clipPath></defs></svg>