<svg width="58" height="58" viewBox="0 0 58 58" fill="none" xmlns="http://www.w3.org/2000/svg"><circle cx="29" cy="29" r="28.5" fill="#0E2B50" stroke="#0E2B50"/><path d="M26.25 38.669h5.5v-5.164h-5.5v5.164zM29 41.337c1.894 0 2.483-1.027 2.667-1.666h-5.334c.184.64.773 1.666 2.667 1.666zm0-25.333a7 7 0 00-7 7c0 3.86 3.945 4.937 4.223 9.5h1.27c-.008-.026-.023-.05-.028-.08l-2-10.997a.502.502 0 01.94-.313l.553 1.106.553-1.107a.5.5 0 01.893 0l.553 1.106.553-1.107a.497.497 0 01.893 0l.554 1.106.553-1.107a.5.5 0 01.937.313l-2 10.998c-.004.03-.02.053-.028.078h1.355c.278-4.562 4.224-5.64 4.224-9.5 0-3.864-3.134-7-7-7l.002.004zm1.958 7.833a.496.496 0 01-.446-.275l-.554-1.105-.553 1.106a.503.503 0 01-.896.001l-.553-1.105-.553 1.106a.496.496 0 01-.446.276h-.037l1.455 8h1.167l1.454-8h-.038v-.004z" fill="#F8F8F8"/></svg>