<svg width="100" height="40" viewBox="0 0 100 40" fill="none" xmlns="http://www.w3.org/2000/svg"><path d="M74.515 32.935c-.665-.447-1.263-3.26-.767-3.525.605-.322.562.668 1.848 1.89 1.286 1.223 5.302.731 6.317 1.062 1.117.364-5.233 2.027-7.398.573z" fill="#0E2B50"/><path d="M75.596 31.301c-1.12-4.485-.583-6.951.054-8.598 1.12-2.899 9.233-9.36 15.053-11.386 1.539-.537 6.409-1.31 9.179-1.31.483 1.866-.962 5.376-1.328 6.017-.827 1.45-2.92 3.42-7.086 7.59-.206.207-4.195-.368-4.406-.153-.231.237 3.315 1.265 3.078 1.513a84.49 84.49 0 00-1.859 2.006c-.14.157-6.811-.739-6.953-.578-.19.217 6.148 1.49 5.955 1.713a81.68 81.68 0 00-1.606 1.92c-1.413 1.743-10.08 1.266-10.08 1.266z" fill="#0E2B50"/><path d="M86.892 19.442c1.301.773 4.369 1.555 6.815 1.938 1.556-1.55 2.704-2.704 3.526-3.625-1.851-.392-4.706-1.04-6.136-1.67l-.669-.323-3.992 3.338.456.341z" fill="#0E2B50"/><path d="M99.954 10.418a3.042 3.042 0 00-.072-.412c-.31 0-.65.012-1.004.03-2.818.142-6.808.805-8.175 1.28a23.987 23.987 0 00-2.064.859c.292 1.185.923 2.517 1.48 3.212a58.891 58.891 0 00-3.962 3.294c-4.635 4.2-8.213 8.703-10.658 12.2.032.14.062.276.098.42 0 0 .18.01.483.02 1.214-1.83 4.673-6.594 10.813-11.879a74.667 74.667 0 014.204-3.358c1.43.63 4.285 1.279 6.136 1.67.264-.294.496-.569.696-.822a7.59 7.59 0 00.625-.908c.34-.597 1.614-3.677 1.4-5.606z" fill="#0E2B50"/><path d="M99.882 10.006c-.303 0-.616-.002-.933-.006-3.208 1.5-6.154 3.357-8.828 5.387-.557-.696-1.19-2.027-1.481-3.212a35.125 35.125 0 00-3.675 2.032c.253 1.53.698 3.504 1.192 4.474-9.364 8.488-14.436 18.225-14.506 18.362a.392.392 0 00-.022.306c.034.1.108.184.205.231a.418.418 0 00.55-.179c.098-.19 9.953-19.117 27.585-26.991a6.102 6.102 0 00-.087-.404z" fill="url(#paint0_linear_42_301)"/><path d="M1.583 4.797c-.08-.275-.18-.484-.3-.627a.766.766 0 00-.441-.314A1.833 1.833 0 00.2 3.758H.06v-.196h6.253v.196h-.621c-.401 0-.702.072-.902.216-.2.13-.3.353-.3.666 0 .065.006.157.02.274.026.105.053.222.08.353.026.13.053.255.08.372l1.803 5.936c.147.484.288.967.421 1.45.134.47.26.967.381 1.49.134.509.267 1.064.4 1.665.068-.353.155-.745.261-1.176.12-.43.241-.901.361-1.41L10.802 3.7h1.223l2.706 7.856c.173.483.34 1.012.5 1.587.174.575.335 1.13.482 1.665.16.523.287.967.38 1.332.094-.43.194-.868.301-1.312a288.97 288.97 0 01.621-2.528l1.664-6.563c.067-.209.113-.398.14-.568.027-.17.04-.32.04-.45 0-.353-.107-.601-.32-.745-.214-.144-.555-.216-1.023-.216h-.841v-.196h4.349v.196h-.481c-.294 0-.541.046-.742.138-.187.09-.347.254-.48.49-.121.221-.228.528-.322.92l-3.066 12.245H14.05L10.342 6.384 7.535 17.55H5.53L1.583 4.797zM21.637 17.55v-.196h.22c.268 0 .515-.04.742-.117a1.06 1.06 0 00.541-.412c.147-.196.22-.477.22-.842V8.558c0-.352-.073-.62-.22-.803a.956.956 0 00-.541-.392 2.26 2.26 0 00-.742-.117h-.08V7.05h4.169v1.783h.04c.134-.392.307-.738.521-1.039a2.3 2.3 0 01.902-.705c.374-.17.835-.255 1.383-.255.708 0 1.25.144 1.623.431.388.275.581.666.581 1.176 0 .496-.193.895-.58 1.195-.388.287-.956.43-1.704.43 0-.626-.054-1.116-.16-1.468-.108-.353-.255-.601-.442-.745a.973.973 0 00-.641-.215c-.267 0-.501.084-.701.254-.188.157-.341.392-.461.706a4.74 4.74 0 00-.26 1.097c-.054.418-.081.888-.081 1.41v4.86c0 .365.067.652.2.861.134.196.314.333.541.412.241.078.495.117.762.117h.481v.196h-6.313zm10.04 0v-.196h.26c.267 0 .514-.04.741-.117.228-.079.408-.216.542-.412.147-.196.22-.47.22-.823V8.558c0-.352-.073-.62-.22-.803a.957.957 0 00-.542-.392 2.26 2.26 0 00-.741-.117h-.18V7.05h4.288v8.914c0 .366.067.653.2.862.135.196.315.333.542.412.24.078.494.117.762.117h.24v.196h-6.113zm2.965-12.304a1.27 1.27 0 01-.861-.313c-.227-.21-.341-.536-.341-.98 0-.47.114-.803.34-.999.241-.196.529-.294.862-.294.321 0 .602.098.842.294.254.196.381.53.381 1 0 .456-.127.79-.38.998a1.296 1.296 0 01-.843.294zm8.315 12.5c-.949 0-1.677-.229-2.185-.686-.494-.457-.741-1.254-.741-2.39V7.246h-1.523V7.05c.587 0 1.102-.052 1.543-.157.44-.117.821-.3 1.142-.549a2.84 2.84 0 00.762-.9c.2-.366.36-.797.48-1.294h.201v2.9h2.646v.196h-2.646v8.248c0 .64.12 1.117.36 1.43.255.3.629.45 1.123.45.187 0 .388-.019.601-.058a4.04 4.04 0 00.682-.196v.196c-.2.091-.521.183-.962.274a6.283 6.283 0 01-1.483.157zm3.242-.196v-.196h.26c.268 0 .515-.04.742-.117a1.06 1.06 0 00.541-.412c.147-.196.22-.47.22-.823V8.558c0-.352-.073-.62-.22-.803a.956.956 0 00-.541-.392 2.26 2.26 0 00-.742-.117h-.18V7.05h4.289v8.914c0 .366.067.653.2.862.134.196.314.333.541.412.241.078.495.117.762.117h.24v.196H46.2zm2.966-12.304a1.27 1.27 0 01-.862-.313c-.227-.21-.34-.536-.34-.98 0-.47.113-.803.34-.999a1.32 1.32 0 01.862-.294c.32 0 .601.098.842.294.254.196.38.53.38 1 0 .456-.126.79-.38.998-.24.196-.521.294-.842.294zM53.05 17.55v-.196h.22c.281 0 .535-.04.762-.117a1.03 1.03 0 00.541-.431c.134-.223.2-.53.2-.921v-7.23c0-.392-.073-.685-.22-.881a.933.933 0 00-.541-.412 2.148 2.148 0 00-.742-.117h-.18V7.05h4.269v1.802h.04c.174-.6.414-1.045.722-1.332a2.271 2.271 0 011.042-.568c.4-.092.781-.137 1.142-.137 1.19 0 2.071.3 2.646.9.574.602.861 1.568.861 2.9v5.192c0 .431.047.758.14.98.108.209.261.36.462.45.213.079.48.118.801.118h.08v.196h-4.088V9.969c0-.849-.134-1.509-.4-1.979-.255-.47-.702-.705-1.344-.705-.534 0-.955.163-1.262.49-.294.313-.508.744-.642 1.293a8.355 8.355 0 00-.18 1.822v4.996c0 .392.067.698.2.92.134.21.315.353.542.432.227.078.474.117.741.117h.2v.196H53.05zm17.48 4.702c-1.55 0-2.686-.222-3.407-.666-.708-.431-1.062-1.025-1.062-1.783 0-.405.107-.764.32-1.077.228-.3.582-.543 1.063-.725.48-.183 1.115-.288 1.903-.314-.654-.13-1.155-.385-1.503-.764-.347-.379-.52-.81-.52-1.293 0-.47.166-.875.5-1.215.334-.352.815-.633 1.443-.842-.708-.222-1.269-.6-1.683-1.136-.401-.536-.601-1.202-.601-1.999 0-1.136.327-2.024.982-2.664.668-.64 1.683-.96 3.046-.96.508 0 .969.065 1.383.196.427.13.802.313 1.122.548.2-.248.394-.457.581-.627.2-.183.415-.32.642-.411a1.83 1.83 0 01.741-.157c.414 0 .728.105.942.314.214.195.32.45.32.764 0 .26-.093.502-.28.725-.187.209-.52.313-1.002.313 0-.392-.08-.686-.24-.882-.16-.196-.388-.294-.682-.294a.99.99 0 00-.44.098 1.442 1.442 0 00-.421.275c.387.326.688.725.901 1.195.214.457.321.973.321 1.548 0 .98-.314 1.796-.942 2.449-.628.64-1.61.96-2.946.96-.267 0-.528-.014-.782-.04a6.77 6.77 0 01-.741-.156c-.28.13-.475.28-.581.45a1.01 1.01 0 00-.14.53c0 .3.113.528.34.685.227.144.575.216 1.042.216h2.365c.855 0 1.55.124 2.085.372.534.235.928.574 1.182 1.018.254.445.38.967.38 1.568 0 1.175-.46 2.096-1.382 2.762-.909.68-2.325 1.02-4.249 1.02zm.22-.196c.735 0 1.363-.091 1.884-.274.522-.17.916-.438 1.183-.803.28-.366.42-.836.42-1.411 0-.588-.16-1.032-.48-1.332-.32-.3-.822-.45-1.503-.45h-2.085c-.44 0-.815.064-1.122.195a1.6 1.6 0 00-.722.666c-.173.314-.26.706-.26 1.176 0 .51.1.927.3 1.254.214.326.515.568.902.724.401.17.896.255 1.484.255zm.2-8.424c.388 0 .689-.105.903-.314.227-.222.387-.568.48-1.038.094-.47.141-1.09.141-1.861 0-.823-.047-1.483-.14-1.98-.094-.496-.254-.855-.481-1.077-.227-.235-.535-.352-.922-.352-.36 0-.662.117-.902.352-.227.235-.388.608-.481 1.117-.094.496-.14 1.156-.14 1.979 0 .757.046 1.371.14 1.841.107.47.274.81.501 1.02.227.208.528.313.902.313zM30.285 37.747c-1.483 0-2.719-.3-3.708-.901a5.622 5.622 0 01-2.224-2.508c-.481-1.084-.722-2.345-.722-3.781 0-1.424.24-2.671.722-3.742a5.569 5.569 0 012.244-2.528c1.016-.613 2.292-.92 3.828-.92.922 0 1.704.104 2.345.313.642.196 1.13.47 1.463.823.334.34.501.718.501 1.136 0 .47-.2.85-.6 1.137-.388.274-.93.41-1.624.41 0-.861-.087-1.553-.26-2.076-.175-.535-.442-.927-.803-1.175-.36-.248-.835-.372-1.423-.372-.801 0-1.462.254-1.984.764-.507.496-.881 1.26-1.122 2.292-.24 1.019-.36 2.318-.36 3.899 0 1.606.14 2.932.42 3.977.28 1.032.715 1.796 1.303 2.292.601.496 1.376.744 2.325.744.628 0 1.175-.11 1.643-.333a2.84 2.84 0 001.183-1.018c.32-.458.56-1.032.721-1.724a.8.8 0 01.401.313c.094.13.14.3.14.51 0 .26-.08.535-.24.822-.16.275-.414.542-.762.803-.347.249-.802.451-1.363.608-.56.157-1.242.235-2.044.235zm11.192 0c-1.536 0-2.752-.45-3.648-1.352-.881-.901-1.322-2.28-1.322-4.134 0-1.828.42-3.193 1.262-4.095.855-.9 2.111-1.351 3.768-1.351 1.55 0 2.766.45 3.648 1.351.882.902 1.323 2.267 1.323 4.095 0 1.855-.428 3.233-1.283 4.134-.842.901-2.091 1.352-3.748 1.352zm.04-.196c.575 0 1.029-.17 1.363-.51.348-.352.595-.914.742-1.684.147-.77.22-1.803.22-3.096 0-1.28-.08-2.299-.24-3.056-.147-.77-.395-1.326-.742-1.665-.334-.353-.788-.53-1.363-.53-.561 0-1.015.177-1.363.53-.334.34-.58.894-.741 1.665-.147.758-.22 1.776-.22 3.056 0 1.293.073 2.325.22 3.096.16.77.407 1.332.741 1.685.348.34.809.509 1.383.509zm11.958.196c-1.537 0-2.753-.45-3.648-1.352-.882-.901-1.323-2.28-1.323-4.134 0-1.828.421-3.193 1.263-4.095.855-.9 2.111-1.351 3.768-1.351 1.55 0 2.766.45 3.647 1.351.882.902 1.323 2.267 1.323 4.095 0 1.855-.427 3.233-1.283 4.134-.841.901-2.09 1.352-3.747 1.352zm.04-.196c.574 0 1.028-.17 1.363-.51.347-.352.594-.914.741-1.684.147-.77.22-1.803.22-3.096 0-1.28-.08-2.299-.24-3.056-.147-.77-.394-1.326-.742-1.665-.334-.353-.788-.53-1.362-.53-.562 0-1.016.177-1.363.53-.334.34-.581.894-.742 1.665-.147.758-.22 1.776-.22 3.056 0 1.293.073 2.325.22 3.096.16.77.408 1.332.742 1.685.347.34.808.509 1.383.509zm6.326 0v-.196h.22c.28 0 .534-.04.762-.117.227-.079.407-.216.54-.412.134-.196.201-.477.201-.842V24.17c0-.353-.073-.62-.22-.804a.956.956 0 00-.541-.391 2.258 2.258 0 00-.742-.118h-.18v-.196h4.289v9.326c0 .157-.007.32-.02.49v.49l3.687-3.88c.174-.183.314-.346.421-.49.12-.156.207-.293.26-.41a.888.888 0 00.08-.314c0-.235-.173-.399-.52-.49-.334-.092-.875-.137-1.624-.137v-.196h4.69v.196c-.24 0-.46.02-.661.059a1.59 1.59 0 00-.581.215 5.46 5.46 0 00-.702.51c-.267.221-.581.528-.942.92l-1.603 1.685 3.487 5.133c.32.483.575.836.762 1.058.2.222.367.366.5.431.148.066.288.098.422.098h.04v.196h-.501c-.615 0-1.136-.02-1.564-.059a4.777 4.777 0 01-1.082-.215 2.725 2.725 0 01-.822-.49 5.332 5.332 0 01-.701-.882l-2.245-3.467-.781.822v2.704c0 .366.066.653.2.862.134.196.314.333.541.412.24.078.495.117.762.117h.18v.196H59.84z" fill="#0E2B50"/><defs><linearGradient id="paint0_linear_42_301" x1="98.223" y1="9.493" x2="72.258" y2="37.934" gradientUnits="userSpaceOnUse"><stop stop-color="#0E2B50"/><stop offset="1" stop-color="#403D56" stop-opacity=".8"/></linearGradient></defs></svg>