<svg width="100" height="40" viewBox="0 0 100 40" fill="none" xmlns="http://www.w3.org/2000/svg">
<path d="M74.5153 32.9348C73.8505 32.4882 73.2522 29.6744 73.7482 29.4095C74.3528 29.0878 74.3104 30.0778 75.5962 31.3001C76.8821 32.5233 80.8985 32.0311 81.9134 32.3615C83.0303 32.726 76.6804 34.3892 74.5153 32.9348Z" fill="#DDB888"/>
<path d="M75.5962 31.3011C74.4758 26.816 75.0127 24.3499 75.6503 22.7025C76.7708 19.8041 84.8833 13.3435 90.7029 11.3167C92.242 10.7804 97.1119 10.0063 99.8818 10.0063C100.365 11.873 98.9196 15.3831 98.5543 16.0242C97.7274 17.4731 95.6332 19.4447 91.4683 23.6142C91.2618 23.8207 87.2731 23.246 87.0624 23.4613C86.8307 23.6983 90.3766 24.7254 90.1399 24.9734C89.5349 25.6058 88.9148 26.2734 88.2812 26.9801C88.1403 27.137 81.4699 26.2413 81.3282 26.4023C81.138 26.6185 87.4756 27.8928 87.2831 28.1152C86.7545 28.7277 86.2184 29.367 85.6775 30.034C84.2637 31.7775 75.5962 31.3011 75.5962 31.3011Z" fill="#DDB888"/>
<path d="M86.8921 19.4415C88.1935 20.2146 91.2612 20.9967 93.7073 21.3802C95.2628 19.8296 96.4111 18.6762 97.233 17.7549C95.3818 17.3627 92.5271 16.7143 91.0971 16.0843L90.4284 15.7617L86.4357 19.0997L86.8921 19.4415Z" fill="#DDB888"/>
<path d="M99.9541 10.4178C99.9395 10.2792 99.9154 10.1417 99.8818 10.0063C99.5722 10.0063 99.2328 10.0176 98.8779 10.0352C96.0603 10.1777 92.0699 10.8404 90.7029 11.3167C90.4203 11.4151 90.1276 11.5328 89.8351 11.6513C89.4432 11.8098 89.0449 11.9843 88.6395 12.1748C88.9309 13.3603 89.5622 14.6915 90.12 15.387C88.7503 16.4277 87.428 17.5267 86.157 18.6809C81.5223 22.8817 77.9443 27.3836 75.4987 30.8817C75.5315 31.0209 75.561 31.1568 75.5971 31.3011C75.5971 31.3011 75.7764 31.3107 76.0797 31.3217C77.2944 29.4905 80.7537 24.7268 86.8929 19.4422C88.2524 18.2737 89.6547 17.1537 91.0973 16.0843C92.5271 16.7142 95.3818 17.3626 97.233 17.7548C97.4971 17.4594 97.7296 17.1849 97.9288 16.932C98.1877 16.6021 98.3952 16.3036 98.5543 16.0242C98.8944 15.4271 100.168 12.3469 99.9541 10.4178Z" fill="#DDB888"/>
<path d="M99.8818 10.0064C99.5793 10.0064 99.2664 10.004 98.9493 10C95.7407 11.5001 92.7954 13.3571 90.1211 15.3871C89.5637 14.6907 88.9317 13.3604 88.6401 12.1749C87.3743 12.7792 86.1472 13.4579 84.9654 14.2072C85.2184 15.7369 85.6637 17.7109 86.1576 18.681C76.7927 27.1692 71.7207 36.9059 71.6509 37.0429C71.6023 37.138 71.5942 37.248 71.6286 37.3488C71.6628 37.4496 71.7367 37.5327 71.834 37.5804C71.9313 37.628 72.0438 37.6359 72.1472 37.6022C72.2503 37.5688 72.3357 37.4963 72.3846 37.4014C72.482 37.211 82.3372 18.2841 99.9695 10.4099C99.9449 10.2744 99.9157 10.1399 99.8818 10.0064Z" fill="url(#paint0_linear_47_1401)"/>
<path d="M1.58329 4.79664C1.50313 4.52236 1.40292 4.31338 1.28267 4.1697C1.17578 4.01297 1.0288 3.90848 0.841748 3.85623C0.668053 3.79093 0.454274 3.75828 0.200412 3.75828H0.0601196V3.56236H6.31315V3.75828H5.69185C5.29102 3.75828 4.99039 3.83011 4.78997 3.97379C4.58956 4.1044 4.48935 4.32644 4.48935 4.63991C4.48935 4.70521 4.49603 4.79664 4.50939 4.91419C4.53611 5.01868 4.56283 5.13623 4.58956 5.26685C4.61628 5.39746 4.643 5.52154 4.66972 5.63909L6.47348 11.5754C6.62045 12.0587 6.76075 12.5419 6.89436 13.0252C7.02797 13.4954 7.1549 13.9917 7.27515 14.5142C7.40876 15.0236 7.54238 15.5787 7.67599 16.1795C7.74279 15.8268 7.82964 15.435 7.93653 15.004C8.05678 14.573 8.17703 14.1028 8.29728 13.5934L10.8025 3.6995H12.025L14.7307 11.5558C14.9044 12.0391 15.0714 12.5681 15.2317 13.1428C15.4054 13.7175 15.5658 14.2726 15.7127 14.8081C15.8731 15.3305 16 15.7746 16.0935 16.1403C16.187 15.7093 16.2873 15.2717 16.3941 14.8277C16.501 14.3836 16.6079 13.946 16.7148 13.515C16.8217 13.0709 16.9219 12.666 17.0154 12.3003L18.6789 5.73705C18.7457 5.52807 18.7925 5.33868 18.8192 5.16889C18.8459 4.99909 18.8593 4.84889 18.8593 4.71828C18.8593 4.36562 18.7524 4.11746 18.5386 3.97379C18.3248 3.83011 17.9841 3.75828 17.5165 3.75828H16.6747V3.56236H21.0238V3.75828H20.5428C20.2488 3.75828 20.0017 3.80399 19.8012 3.89542C19.6142 3.98685 19.4539 4.15011 19.3202 4.38521C19.2 4.60726 19.0931 4.91419 18.9996 5.30603L15.9332 17.5509H14.0493L10.3415 6.38358L7.53569 17.5509H5.53152L1.58329 4.79664ZM21.6369 17.5509V17.355H21.8574C22.1246 17.355 22.3718 17.3158 22.599 17.2375C22.8261 17.1591 23.0065 17.0219 23.1401 16.826C23.2871 16.6301 23.3605 16.3493 23.3605 15.9836V8.55828C23.3605 8.20562 23.2871 7.93787 23.1401 7.75501C23.0065 7.55909 22.8261 7.42848 22.599 7.36317C22.3718 7.28481 22.1246 7.24562 21.8574 7.24562H21.7772V7.0497H25.9459V8.83256H25.986C26.1196 8.44072 26.2933 8.0946 26.5071 7.79419C26.7342 7.49379 27.0349 7.25868 27.409 7.08889C27.7831 6.91909 28.244 6.83419 28.7919 6.83419C29.5 6.83419 30.0411 6.97787 30.4152 7.26521C30.8027 7.5395 30.9965 7.93134 30.9965 8.44072C30.9965 8.93705 30.8027 9.33542 30.4152 9.63583C30.0278 9.92317 29.4599 10.0668 28.7117 10.0668C28.7117 9.43991 28.6582 8.95011 28.5514 8.59746C28.4445 8.24481 28.2975 7.99664 28.1104 7.85297C27.9367 7.7093 27.723 7.63746 27.4691 7.63746C27.2019 7.63746 26.9681 7.72236 26.7676 7.89215C26.5806 8.04889 26.4269 8.28399 26.3067 8.59746C26.1864 8.91093 26.0996 9.27664 26.0461 9.6946C25.9927 10.1126 25.966 10.5828 25.966 11.1052V15.964C25.966 16.3297 26.0328 16.6171 26.1664 16.826C26.3 17.0219 26.4804 17.1591 26.7075 17.2375C26.948 17.3158 27.2019 17.355 27.4691 17.355H27.9501V17.5509H21.6369ZM31.6764 17.5509V17.355H31.9369C32.2042 17.355 32.4514 17.3158 32.6785 17.2375C32.9056 17.1591 33.086 17.0219 33.2196 16.826C33.3666 16.6301 33.4401 16.3558 33.4401 16.0032V8.55828C33.4401 8.20562 33.3666 7.93787 33.2196 7.75501C33.086 7.55909 32.9056 7.42848 32.6785 7.36317C32.4514 7.28481 32.2042 7.24562 31.9369 7.24562H31.7566V7.0497H36.0455V15.964C36.0455 16.3297 36.1123 16.6171 36.2459 16.826C36.3795 17.0219 36.5599 17.1591 36.7871 17.2375C37.0276 17.3158 37.2814 17.355 37.5486 17.355H37.7891V17.5509H31.6764ZM34.6426 5.24726C34.3086 5.24726 34.0213 5.14277 33.7808 4.93379C33.5536 4.72481 33.4401 4.39828 33.4401 3.95419C33.4401 3.48399 33.5536 3.15093 33.7808 2.95501C34.0213 2.75909 34.3086 2.66113 34.6426 2.66113C34.9633 2.66113 35.2438 2.75909 35.4843 2.95501C35.7382 3.15093 35.8651 3.48399 35.8651 3.95419C35.8651 4.41134 35.7382 4.7444 35.4843 4.95338C35.2438 5.1493 34.9633 5.24726 34.6426 5.24726ZM42.9568 17.7468C42.0081 17.7468 41.28 17.5183 40.7722 17.0611C40.2779 16.604 40.0307 15.8073 40.0307 14.6709V7.24562H38.5075V7.0497C39.0954 7.0497 39.6098 6.99746 40.0507 6.89297C40.4916 6.77542 40.8724 6.59256 41.1931 6.3444C41.5004 6.1093 41.7543 5.80889 41.9547 5.44317C42.1551 5.07746 42.3154 4.64644 42.4357 4.15011H42.6361V7.0497H45.2816V7.24562H42.6361V15.4938C42.6361 16.1338 42.7564 16.6105 42.9969 16.924C43.2507 17.2244 43.6248 17.3746 44.1192 17.3746C44.3063 17.3746 44.5067 17.355 44.7205 17.3158C44.9342 17.2766 45.1614 17.2113 45.4019 17.1199V17.3158C45.2015 17.4073 44.8808 17.4987 44.4399 17.5901C44.0123 17.6946 43.518 17.7468 42.9568 17.7468ZM46.199 17.5509V17.355H46.4595C46.7267 17.355 46.9739 17.3158 47.201 17.2375C47.4282 17.1591 47.6086 17.0219 47.7422 16.826C47.8891 16.6301 47.9626 16.3558 47.9626 16.0032V8.55828C47.9626 8.20562 47.8891 7.93787 47.7422 7.75501C47.6086 7.55909 47.4282 7.42848 47.201 7.36317C46.9739 7.28481 46.7267 7.24562 46.4595 7.24562H46.2791V7.0497H50.5681V15.964C50.5681 16.3297 50.6349 16.6171 50.7685 16.826C50.9021 17.0219 51.0825 17.1591 51.3096 17.2375C51.5501 17.3158 51.804 17.355 52.0712 17.355H52.3117V17.5509H46.199ZM49.1651 5.24726C48.8311 5.24726 48.5438 5.14277 48.3033 4.93379C48.0762 4.72481 47.9626 4.39828 47.9626 3.95419C47.9626 3.48399 48.0762 3.15093 48.3033 2.95501C48.5438 2.75909 48.8311 2.66113 49.1651 2.66113C49.4858 2.66113 49.7664 2.75909 50.0069 2.95501C50.2607 3.15093 50.3877 3.48399 50.3877 3.95419C50.3877 4.41134 50.2607 4.7444 50.0069 4.95338C49.7664 5.1493 49.4858 5.24726 49.1651 5.24726ZM53.0501 17.5509V17.355H53.2706C53.5511 17.355 53.805 17.3158 54.0321 17.2375C54.2593 17.1591 54.4397 17.0154 54.5733 16.8064C54.7069 16.5844 54.7737 16.2775 54.7737 15.8856V8.65623C54.7737 8.2644 54.7002 7.97052 54.5532 7.7746C54.4196 7.56562 54.2392 7.42848 54.0121 7.36317C53.7983 7.28481 53.5511 7.24562 53.2706 7.24562H53.0902V7.0497H57.3591V8.85215H57.3992C57.5729 8.25134 57.8134 7.80725 58.1207 7.51991C58.428 7.23256 58.7754 7.04317 59.1628 6.95174C59.5637 6.86032 59.9445 6.8146 60.3052 6.8146C61.4944 6.8146 62.3762 7.11501 62.9507 7.71583C63.5253 8.31664 63.8125 9.28317 63.8125 10.6154V15.8073C63.8125 16.2383 63.8593 16.5648 63.9528 16.7868C64.0597 16.9958 64.2134 17.146 64.4138 17.2375C64.6276 17.3158 64.8948 17.355 65.2154 17.355H65.2956V17.5509H61.2071V9.96889C61.2071 9.11991 61.0735 8.46032 60.8063 7.99011C60.5524 7.51991 60.1048 7.28481 59.4635 7.28481C58.929 7.28481 58.5081 7.44807 58.2008 7.7746C57.9069 8.08807 57.6931 8.51909 57.5595 9.06766C57.4392 9.60317 57.3791 10.2105 57.3791 10.8897V15.8856C57.3791 16.2775 57.4459 16.5844 57.5795 16.8064C57.7132 17.0154 57.8935 17.1591 58.1207 17.2375C58.3478 17.3158 58.595 17.355 58.8622 17.355H59.0626V17.5509H53.0501ZM70.5301 22.253C68.9802 22.253 67.8445 22.0309 67.123 21.5868C66.4148 21.1558 66.0608 20.5615 66.0608 19.804C66.0608 19.3991 66.1676 19.0399 66.3814 18.7264C66.6086 18.426 66.9626 18.1844 67.4436 18.0015C67.9246 17.8187 68.5593 17.7142 69.3476 17.6881C68.6929 17.5575 68.1919 17.3028 67.8445 16.924C67.4971 16.5452 67.3234 16.1142 67.3234 15.6309C67.3234 15.1607 67.4904 14.7558 67.8244 14.4162C68.1585 14.0636 68.6395 13.7828 69.2674 13.5738C68.5593 13.3517 67.9981 12.973 67.5839 12.4375C67.1831 11.9019 66.9827 11.2358 66.9827 10.4391C66.9827 9.30277 67.31 8.4146 67.9647 7.7746C68.6328 7.1346 69.6482 6.8146 71.0111 6.8146C71.5188 6.8146 71.9798 6.87991 72.3939 7.01052C72.8215 7.14113 73.1956 7.32399 73.5163 7.55909C73.7167 7.31093 73.9104 7.10195 74.0975 6.93215C74.2979 6.7493 74.5117 6.61215 74.7388 6.52072C74.9793 6.41623 75.2265 6.36399 75.4804 6.36399C75.8946 6.36399 76.2086 6.46848 76.4223 6.67746C76.6361 6.87338 76.743 7.12807 76.743 7.44154C76.743 7.70276 76.6495 7.9444 76.4624 8.16644C76.2754 8.37542 75.9413 8.47991 75.4603 8.47991C75.4603 8.08807 75.3802 7.79419 75.2198 7.59828C75.0595 7.40236 74.8324 7.3044 74.5384 7.3044C74.3781 7.3044 74.2311 7.33705 74.0975 7.40236C73.9639 7.4546 73.8236 7.54603 73.6766 7.67664C74.0641 8.00317 74.3647 8.40154 74.5785 8.87174C74.7923 9.32889 74.8992 9.84481 74.8992 10.4195C74.8992 11.3991 74.5852 12.2154 73.9572 12.8685C73.3292 13.5085 72.3472 13.8285 71.0111 13.8285C70.7438 13.8285 70.4833 13.8154 70.2294 13.7893C69.9756 13.7501 69.7284 13.6979 69.4879 13.6326C69.2073 13.7632 69.0136 13.9134 68.9067 14.0832C68.8131 14.2399 68.7664 14.4162 68.7664 14.6122C68.7664 14.9126 68.88 15.1411 69.1071 15.2979C69.3342 15.4415 69.6816 15.5134 70.1493 15.5134H72.5142C73.3693 15.5134 74.0641 15.6375 74.5985 15.8856C75.133 16.1207 75.5271 16.4603 75.781 16.9044C76.0349 17.3485 76.1618 17.8709 76.1618 18.4717C76.1618 19.6473 75.7008 20.5681 74.7789 21.2342C73.8704 21.9134 72.4541 22.253 70.5301 22.253ZM70.7505 22.0571C71.4854 22.0571 72.1134 21.9656 72.6344 21.7828C73.1555 21.613 73.5497 21.3452 73.8169 20.9795C74.0975 20.6138 74.2378 20.1436 74.2378 19.5689C74.2378 18.9811 74.0775 18.5371 73.7568 18.2366C73.4361 17.9362 72.9351 17.786 72.2537 17.786H70.1693C69.7284 17.786 69.3543 17.8513 69.047 17.9819C68.7397 18.1256 68.4992 18.3477 68.3255 18.6481C68.1518 18.9615 68.0649 19.3534 68.0649 19.8236C68.0649 20.333 68.1651 20.7509 68.3656 21.0775C68.5793 21.404 68.88 21.6456 69.2674 21.8024C69.6683 21.9722 70.1626 22.0571 70.7505 22.0571ZM70.9509 13.6326C71.3384 13.6326 71.639 13.5281 71.8528 13.3191C72.08 13.0971 72.2403 12.7509 72.3338 12.2807C72.4273 11.8105 72.4741 11.1901 72.4741 10.4195C72.4741 9.59664 72.4273 8.93705 72.3338 8.44072C72.2403 7.9444 72.08 7.58521 71.8528 7.36317C71.6257 7.12807 71.3184 7.01052 70.9309 7.01052C70.5701 7.01052 70.2695 7.12807 70.029 7.36317C69.8019 7.59828 69.6415 7.97052 69.548 8.47991C69.4545 8.97623 69.4077 9.63583 69.4077 10.4587C69.4077 11.2162 69.4545 11.8301 69.548 12.3003C69.6549 12.7705 69.8219 13.1101 70.0491 13.3191C70.2762 13.5281 70.5768 13.6326 70.9509 13.6326ZM30.2841 37.7468C28.801 37.7468 27.5651 37.4464 26.5764 36.8456C25.5877 36.2448 24.8461 35.4089 24.3518 34.3379C23.8708 33.2538 23.6303 31.9934 23.6303 30.5566C23.6303 29.133 23.8708 27.8856 24.3518 26.8146C24.8461 25.7305 25.5944 24.8881 26.5964 24.2873C27.6119 23.6734 28.8879 23.3664 30.4244 23.3664C31.3463 23.3664 32.128 23.4709 32.7693 23.6799C33.4106 23.8758 33.8983 24.1501 34.2324 24.5028C34.5664 24.8424 34.7334 25.2211 34.7334 25.6391C34.7334 26.1093 34.533 26.4881 34.1321 26.7754C33.7447 27.0497 33.2035 27.1868 32.5088 27.1868C32.5088 26.3248 32.4219 25.6326 32.2482 25.1101C32.0745 24.5746 31.8073 24.1828 31.4466 23.9346C31.0858 23.6864 30.6115 23.5624 30.0236 23.5624C29.2219 23.5624 28.5605 23.817 28.0395 24.3264C27.5317 24.8228 27.1576 25.5868 26.9171 26.6187C26.6766 27.6375 26.5564 28.937 26.5564 30.5175C26.5564 32.124 26.6967 33.4497 26.9772 34.4946C27.2578 35.5264 27.6921 36.2905 28.28 36.7868C28.8812 37.2832 29.6562 37.5313 30.6048 37.5313C31.2328 37.5313 31.7806 37.4203 32.2482 37.1983C32.7292 36.9762 33.1234 36.6366 33.4307 36.1795C33.7514 35.7224 33.9919 35.1477 34.1522 34.4554C34.3259 34.5207 34.4595 34.6252 34.553 34.7689C34.6466 34.8995 34.6933 35.0693 34.6933 35.2783C34.6933 35.5395 34.6132 35.8138 34.4528 36.1011C34.2925 36.3754 34.0386 36.6432 33.6912 36.9044C33.3438 37.1526 32.8896 37.355 32.3284 37.5117C31.7672 37.6685 31.0858 37.7468 30.2841 37.7468ZM41.4762 37.7468C39.9397 37.7468 38.7238 37.2962 37.8286 36.395C36.9468 35.4938 36.5058 34.1158 36.5058 32.2611C36.5058 30.4326 36.9267 29.0677 37.7685 28.1664C38.6236 27.2652 39.8795 26.8146 41.5363 26.8146C43.0862 26.8146 44.3021 27.2652 45.1839 28.1664C46.0658 29.0677 46.5067 30.4326 46.5067 32.2611C46.5067 34.1158 46.0791 35.4938 45.224 36.395C44.3823 37.2962 43.133 37.7468 41.4762 37.7468ZM41.5163 37.5509C42.0908 37.5509 42.5451 37.3811 42.8791 37.0415C43.2265 36.6889 43.4737 36.1273 43.6207 35.3566C43.7676 34.586 43.8411 33.5542 43.8411 32.2611C43.8411 30.9811 43.761 29.9624 43.6006 29.2048C43.4537 28.4342 43.2065 27.8791 42.8591 27.5395C42.5251 27.1868 42.0708 27.0105 41.4962 27.0105C40.9351 27.0105 40.4808 27.1868 40.1334 27.5395C39.7994 27.8791 39.5522 28.4342 39.3919 29.2048C39.2449 29.9624 39.1714 30.9811 39.1714 32.2611C39.1714 33.5542 39.2449 34.586 39.3919 35.3566C39.5522 36.1273 39.7994 36.6889 40.1334 37.0415C40.4808 37.3811 40.9418 37.5509 41.5163 37.5509ZM53.4737 37.7468C51.9372 37.7468 50.7213 37.2962 49.8261 36.395C48.9443 35.4938 48.5033 34.1158 48.5033 32.2611C48.5033 30.4326 48.9242 29.0677 49.766 28.1664C50.6211 27.2652 51.877 26.8146 53.5338 26.8146C55.0837 26.8146 56.2996 27.2652 57.1814 28.1664C58.0633 29.0677 58.5042 30.4326 58.5042 32.2611C58.5042 34.1158 58.0766 35.4938 57.2215 36.395C56.3797 37.2962 55.1305 37.7468 53.4737 37.7468ZM53.5138 37.5509C54.0883 37.5509 54.5426 37.3811 54.8766 37.0415C55.224 36.6889 55.4712 36.1273 55.6182 35.3566C55.7651 34.586 55.8386 33.5542 55.8386 32.2611C55.8386 30.9811 55.7585 29.9624 55.5981 29.2048C55.4511 28.4342 55.204 27.8791 54.8566 27.5395C54.5225 27.1868 54.0683 27.0105 53.4937 27.0105C52.9326 27.0105 52.4783 27.1868 52.1309 27.5395C51.7969 27.8791 51.5497 28.4342 51.3894 29.2048C51.2424 29.9624 51.1689 30.9811 51.1689 32.2611C51.1689 33.5542 51.2424 34.586 51.3894 35.3566C51.5497 36.1273 51.7969 36.6889 52.1309 37.0415C52.4783 37.3811 52.9392 37.5509 53.5138 37.5509ZM59.8397 37.5509V37.355H60.0601C60.3407 37.355 60.5946 37.3158 60.8217 37.2375C61.0489 37.1591 61.2292 37.0219 61.3628 36.826C61.4965 36.6301 61.5633 36.3493 61.5633 35.9836V24.1697C61.5633 23.8171 61.4898 23.5493 61.3428 23.3664C61.2092 23.1705 61.0288 23.0399 60.8017 22.9746C60.5745 22.8962 60.3273 22.857 60.0601 22.857H59.8797V22.6611H64.1687V30.9877C64.1687 31.1575 64.1687 31.3273 64.1687 31.4971C64.1687 31.6538 64.1687 31.817 64.1687 31.9868C64.1687 32.1436 64.162 32.3068 64.1486 32.4766C64.1486 32.6334 64.1486 32.7966 64.1486 32.9664L67.8363 29.0873C68.01 28.9044 68.1503 28.7411 68.2572 28.5975C68.3774 28.4407 68.4643 28.3036 68.5177 28.186C68.5712 28.0554 68.5979 27.9509 68.5979 27.8726C68.5979 27.6375 68.4242 27.4742 68.0768 27.3828C67.7428 27.2913 67.2017 27.2456 66.4534 27.2456V27.0497H71.1432V27.2456C70.9027 27.2456 70.6823 27.2652 70.4818 27.3044C70.2948 27.3305 70.101 27.4024 69.9006 27.5199C69.7002 27.6375 69.4664 27.8073 69.1992 28.0293C68.9319 28.2513 68.618 28.5583 68.2572 28.9501L66.6539 30.635L70.1411 35.7681C70.4618 36.2513 70.7157 36.604 70.9027 36.826C71.1031 37.0481 71.2701 37.1917 71.4038 37.257C71.5507 37.3224 71.691 37.355 71.8246 37.355H71.8647V37.5509H71.3637C70.7491 37.5509 70.228 37.5313 69.8004 37.4922C69.3862 37.453 69.0255 37.3811 68.7182 37.2766C68.4109 37.1591 68.1369 36.9958 67.8964 36.7868C67.6693 36.5648 67.4355 36.2709 67.195 35.9052L64.9503 32.4375L64.1687 33.2603V35.964C64.1687 36.3297 64.2355 36.6171 64.3691 36.826C64.5027 37.0219 64.6831 37.1591 64.9102 37.2375C65.1507 37.3158 65.4046 37.355 65.6718 37.355H65.8522V37.5509H59.8397Z" fill="#DDB888"/>
<defs>
<linearGradient id="paint0_linear_47_1401" x1="98.2236" y1="9.49288" x2="72.2581" y2="37.9345" gradientUnits="userSpaceOnUse">
<stop stop-color="#DDB888"/>
<stop offset="1" stop-color="#B78D58" stop-opacity="0.4"/>
</linearGradient>
</defs>
</svg>
