<svg width="24" height="26" viewBox="0 0 24 26" fill="none" xmlns="http://www.w3.org/2000/svg"><path d="M20 18.378c-1.013 0-1.92.391-2.613 1.005L7.88 13.966c.067-.3.12-.6.12-.914 0-.313-.053-.613-.12-.913l9.4-5.365A4.03 4.03 0 0020 7.831c2.213 0 4-1.749 4-3.915C24 1.749 22.213 0 20 0s-4 1.749-4 3.916c0 .313.053.613.12.913l-9.4 5.365A4.029 4.029 0 004 9.137c-2.213 0-4 1.748-4 3.915s1.787 3.916 4 3.916c1.053 0 2-.405 2.72-1.057l9.493 5.43a3.612 3.612 0 00-.106.848C16.107 24.29 17.853 26 20 26s3.893-1.71 3.893-3.811c0-2.102-1.746-3.811-3.893-3.811z" fill="#403D56"/></svg>