<svg width="28" height="40" viewBox="0 0 28 40" fill="none" xmlns="http://www.w3.org/2000/svg"><path d="M13.804 0c-1.79 0-3.42.923-4.264 2.365L9.168 3l-.642-.35a4.106 4.106 0 00-1.967-.504c-2.39 0-4.332 2.018-4.332 4.554 0 2.268 1.57 4.16 3.673 4.502l.642.103v4.57c4.889-.95 9.795-.993 14.692 0V9.909l.405-.222c1.326-.71 2.204-2.234 2.204-3.95 0-2.464-1.748-4.375-3.833-4.375a3.39 3.39 0 00-1.596.404l-.524.274-.388-.435C16.59.597 15.239 0 13.804 0zm.084 16.67a36.04 36.04 0 00-6.476.6 10.87 10.87 0 00-.11 1.591c0 2.482.777 4.724 1.993 6.308 1.216 1.583 2.828 2.507 4.593 2.507 1.765 0 3.377-.924 4.593-2.507 1.216-1.584 1.993-3.826 1.993-6.308 0-.547-.042-1.087-.11-1.6a34.535 34.535 0 00-6.476-.59zM9.894 27.873l-7.531 2.542L0 40h19.427l-1.224-8.704 1.503-.222L20.964 40h6.814l-2.364-9.585-7.532-2.542c-1.165.847-2.533 1.344-3.994 1.344-1.46 0-2.829-.497-3.994-1.344zm5.852 4.51a.835.835 0 01.597.25.856.856 0 01.247.606.865.865 0 01-.247.605.843.843 0 01-.597.25.835.835 0 01-.597-.25.857.857 0 01-.183-.933.857.857 0 01.457-.463.835.835 0 01.323-.065zm.59 3.937c.225 0 .44.09.598.25a.861.861 0 010 1.211.838.838 0 01-1.194 0 .862.862 0 010-1.21.839.839 0 01.597-.251z" fill="#0E2B50"/></svg>