<svg width="15" height="26" viewBox="0 0 15 26" fill="none" xmlns="http://www.w3.org/2000/svg">
<path d="M13.5 0H1.5C1.10218 0 0.720644 0.195661 0.43934 0.543939C0.158035 0.892217 3.62405e-08 1.36458 3.62405e-08 1.85712V25.2038C-3.84956e-05 25.3459 0.0306498 25.4854 0.0888781 25.6079C0.147106 25.7303 0.230752 25.8313 0.331126 25.9002C0.431501 25.9691 0.544945 26.0034 0.659678 25.9997C0.77441 25.996 0.886246 25.9543 0.983571 25.879L7.49893 20.8383L14.0164 25.879C14.1138 25.9543 14.2256 25.996 14.3403 25.9997C14.4551 26.0034 14.5685 25.9691 14.6689 25.9002C14.7692 25.8313 14.8529 25.7303 14.9111 25.6079C14.9693 25.4854 15 25.3459 15 25.2038V1.85712C15 1.36458 14.842 0.892217 14.5607 0.543939C14.2794 0.195661 13.8978 0 13.5 0ZM1.5 1.59182H13.5C13.5568 1.59182 13.6113 1.61977 13.6515 1.66953C13.6917 1.71928 13.7143 1.78676 13.7143 1.85712V17.4012L7.83964 12.8553C7.73747 12.7762 7.61941 12.7343 7.49893 12.7343C7.37844 12.7343 7.26038 12.7762 7.15821 12.8553L1.28571 17.3999V1.85712C1.28571 1.78676 1.30829 1.71928 1.34848 1.66953C1.38866 1.61977 1.44317 1.59182 1.5 1.59182ZM7.83964 19.2226C7.73747 19.1435 7.61941 19.1016 7.49893 19.1016C7.37844 19.1016 7.26038 19.1435 7.15821 19.2226L1.28571 23.7672V19.2783L7.5 14.4696L13.7143 19.2783V23.7672L7.83964 19.2226Z" fill="#403D56"/>
<path d="M4.6875 7.14121H10.4911M7.58929 4.41077V9.87165" stroke="#403D56" stroke-linecap="round" stroke-linejoin="round"/>
</svg>
