<svg width="23" height="40" viewBox="0 0 23 40" fill="none" xmlns="http://www.w3.org/2000/svg">
<path d="M20 0H2.22222C1.63285 0 1.06762 0.301017 0.650874 0.836829C0.234126 1.37264 5.36896e-08 2.09936 5.36896e-08 2.85711V38.7751C-5.70306e-05 38.9937 0.045407 39.2084 0.131671 39.3967C0.217936 39.5851 0.341854 39.7404 0.490557 39.8464C0.639261 39.9524 0.807326 40.0053 0.9773 39.9996C1.14727 39.9939 1.31296 39.9297 1.45714 39.8139L11.1095 32.0589L20.7651 39.8139C20.9093 39.9297 21.0749 39.9939 21.2449 39.9996C21.4149 40.0053 21.583 39.9524 21.7317 39.8464C21.8804 39.7404 22.0043 39.5851 22.0905 39.3967C22.1768 39.2084 22.2223 38.9937 22.2222 38.7751V2.85711C22.2222 2.09936 21.9881 1.37264 21.5713 0.836829C21.1546 0.301017 20.5894 0 20 0ZM2.22222 2.44895H20C20.0842 2.44895 20.1649 2.49196 20.2245 2.5685C20.284 2.64505 20.3175 2.74886 20.3175 2.85711V26.7712L11.6143 19.7773C11.4629 19.6557 11.288 19.5912 11.1095 19.5912C10.931 19.5912 10.7561 19.6557 10.6048 19.7773L1.90476 26.7691V2.85711C1.90476 2.74886 1.93821 2.64505 1.99774 2.5685C2.05728 2.49196 2.13803 2.44895 2.22222 2.44895ZM11.6143 29.5732C11.4629 29.4515 11.288 29.387 11.1095 29.387C10.931 29.387 10.7561 29.4515 10.6048 29.5732L1.90476 36.5649V29.6589L11.1111 22.261L20.3175 29.6589V36.5649L11.6143 29.5732Z" fill="#F8F8F8"/>
</svg>
