<svg width="42" height="42" viewBox="0 0 42 42" fill="none" xmlns="http://www.w3.org/2000/svg">
<path d="M15.75 7.875H31.5V10.5H15.75V7.875Z" fill="#0E2B50"/>
<path d="M15.75 13.125H31.5V15.75H15.75V13.125Z" fill="#0E2B50"/>
<path d="M15.75 18.375H31.5V21H15.75V18.375Z" fill="#0E2B50"/>
<path d="M15.75 23.625H31.5V26.25H15.75V23.625Z" fill="#0E2B50"/>
<path d="M15.75 28.875H31.5V31.5H15.75V28.875Z" fill="#0E2B50"/>
<path d="M8.75 7.875H12.25V10.5H8.75V7.875Z" fill="#0E2B50"/>
<path d="M8.75 13.125H12.25V15.75H8.75V13.125Z" fill="#0E2B50"/>
<path d="M8.75 18.375H12.25V21H8.75V18.375Z" fill="#0E2B50"/>
<path d="M8.75 23.625H12.25V26.25H8.75V23.625Z" fill="#0E2B50"/>
<path d="M8.75 28.875H12.25V31.5H8.75V28.875Z" fill="#0E2B50"/>
<path d="M38.5 0H3.5C2.57174 0 1.6815 0.276562 1.02513 0.768845C0.368749 1.26113 0 1.92881 0 2.625V39.375C0 40.0712 0.368749 40.7389 1.02513 41.2312C1.6815 41.7234 2.57174 42 3.5 42H38.5C39.4283 42 40.3185 41.7234 40.9749 41.2312C41.6313 40.7389 42 40.0712 42 39.375V2.625C42 1.92881 41.6313 1.26113 40.9749 0.768845C40.3185 0.276562 39.4283 0 38.5 0ZM38.5 39.375H3.5V2.625H38.5V39.375Z" fill="#0E2B50"/>
</svg>
