<svg width="10" height="9" viewBox="0 0 10 9" fill="none" xmlns="http://www.w3.org/2000/svg">
<path fill-rule="evenodd" clip-rule="evenodd" d="M9.70679 0.293211C9.89454 0.481197 10 0.73602 10 1.00171C10 1.26739 9.89454 1.52222 9.70679 1.7102L3.69125 7.72574C3.50327 7.91349 3.24845 8.01895 2.98276 8.01895C2.71707 8.01895 2.46225 7.91349 2.27426 7.72574L0.269084 5.72056C0.0919866 5.5305 -0.00442659 5.27912 0.000156199 5.01939C0.00473899 4.75965 0.10996 4.51183 0.293652 4.32813C0.477343 4.14444 0.725163 4.03922 0.984902 4.03464C1.24464 4.03006 1.49602 4.12647 1.68608 4.30357L2.98276 5.60025L8.2898 0.293211C8.47778 0.105458 8.73261 0 8.99829 0C9.26398 0 9.5188 0.105458 9.70679 0.293211Z" fill="#F8F8F8"/>
</svg>
