<svg width="40" height="40" viewBox="0 0 40 40" fill="none" xmlns="http://www.w3.org/2000/svg">
<line x1="25.0381" y1="28" x2="25.0381" y2="40" stroke="#0E2B50"/>
<line x1="19" y1="33.9617" x2="31" y2="33.9617" stroke="#0E2B50"/>
<path d="M4.0992 33.2113C3.16206 32.5647 2.31851 28.49 3.01783 28.1064C3.87021 27.6406 3.81046 29.0742 5.62322 30.8441C7.43629 32.6155 13.0986 31.9027 14.5293 32.3811C16.104 32.909 7.15168 35.3175 4.0992 33.2113Z" fill="#0E2B50"/>
<path d="M5.62394 30.8458C4.04428 24.351 4.80129 20.7799 5.70017 18.3944C7.27983 14.1972 18.7171 4.84169 26.9218 1.90676C29.0916 1.13015 35.9574 0.00927734 39.8626 0.00927734C40.543 2.71237 38.506 7.79518 37.9909 8.72364C36.8251 10.8217 33.8727 13.6767 28.0008 19.7145C27.7097 20.0136 22.0863 19.1814 21.7893 19.4931C21.4626 19.8363 26.4618 21.3236 26.128 21.6827C25.2751 22.5985 24.4009 23.5652 23.5076 24.5886C23.309 24.8159 13.9049 23.5188 13.705 23.752C13.4369 24.0649 22.3718 25.9102 22.1004 26.2323C21.3552 27.1192 20.5994 28.0451 19.8368 29.0109C17.8436 31.5355 5.62394 30.8458 5.62394 30.8458Z" fill="#0E2B50"/>
<path d="M21.5492 13.6719C23.384 14.7914 27.7089 15.924 31.1575 16.4792C33.3505 14.2339 34.9694 12.5636 36.1281 11.2295C33.5183 10.6615 29.4937 9.72263 27.4778 8.8104L26.5348 8.34326L20.9058 13.1769L21.5492 13.6719Z" fill="#0E2B50"/>
<path d="M39.9637 0.605058C39.9431 0.404396 39.9093 0.205329 39.8619 0.00927734C39.4254 0.00927734 38.9468 0.0255009 38.4465 0.0510048C34.4742 0.257341 28.8484 1.21709 26.9212 1.90676C26.5227 2.04932 26.11 2.21973 25.6977 2.39128C25.1452 2.62078 24.5836 2.87349 24.012 3.14936C24.4229 4.86604 25.313 6.79367 26.0994 7.80095C24.1683 9.30792 22.304 10.8994 20.5122 12.5707C13.9781 18.6539 8.9336 25.1729 5.48584 30.2385C5.53205 30.44 5.57354 30.6369 5.62446 30.8458C5.62446 30.8458 5.87729 30.8597 6.30495 30.8756C8.01735 28.2239 12.8944 21.3257 21.5497 13.6731C23.4664 11.981 25.4433 10.3592 27.4772 8.81058C29.493 9.72281 33.5177 10.6617 36.1275 11.2297C36.4998 10.802 36.8277 10.4044 37.1085 10.0381C37.4734 9.56051 37.766 9.12818 37.9903 8.72364C38.4697 7.85893 40.2651 3.39858 39.9637 0.605058Z" fill="#0E2B50"/>
<path d="M39.862 0.00927916C39.4355 0.00927916 38.9943 0.00582187 38.5472 0C34.0237 2.17221 29.8713 4.86141 26.101 7.80098C25.3151 6.79255 24.4242 4.86608 24.013 3.14936C22.2285 4.02454 20.4984 5.00737 18.8322 6.09242C19.189 8.30754 19.8168 11.166 20.5131 12.5708C7.31016 24.8623 0.159455 38.9619 0.0611496 39.1602C-0.00742886 39.2979 -0.0189061 39.4572 0.0296581 39.6032C0.0779279 39.7492 0.182114 39.8694 0.319271 39.9386C0.456428 40.0075 0.615071 40.019 0.760763 39.9702C0.906161 39.9218 1.02654 39.8168 1.09541 39.6794C1.23286 39.4037 15.1269 11.996 39.9856 0.593506C39.9509 0.397424 39.9097 0.202583 39.862 0.00927916Z" fill="url(#paint0_linear_634_19)"/>
<defs>
<linearGradient id="paint0_linear_634_19" x1="37.5241" y1="-0.734356" x2="-0.154081" y2="39.4469" gradientUnits="userSpaceOnUse">
<stop stop-color="#0E2B50"/>
<stop offset="1" stop-color="#403D56" stop-opacity="0.9"/>
</linearGradient>
</defs>
</svg>
