<svg width="40" height="40" viewBox="0 0 40 40" fill="none" xmlns="http://www.w3.org/2000/svg">
<line x1="25.0381" y1="28" x2="25.0381" y2="40" stroke="#F8F8F8"/>
<line x1="19" y1="33.9615" x2="31" y2="33.9615" stroke="#F8F8F8"/>
<path d="M4.0992 33.2114C3.16206 32.5648 2.31851 28.4901 3.01783 28.1065C3.87021 27.6407 3.81046 29.0743 5.62322 30.8442C7.43629 32.6156 13.0986 31.9028 14.5293 32.3813C16.104 32.9091 7.15168 35.3176 4.0992 33.2114Z" fill="white"/>
<path d="M5.62394 30.8459C4.04428 24.3511 4.80129 20.78 5.70017 18.3945C7.27983 14.1973 18.7171 4.84181 26.9218 1.90688C29.0916 1.13027 35.9574 0.00939941 39.8626 0.00939941C40.543 2.71249 38.506 7.7953 37.9909 8.72376C36.8251 10.8218 33.8727 13.6768 28.0008 19.7146C27.7097 20.0137 22.0863 19.1815 21.7893 19.4933C21.4626 19.8364 26.4618 21.3238 26.128 21.6828C25.2751 22.5987 24.4009 23.5653 23.5076 24.5887C23.309 24.816 13.9049 23.5189 13.705 23.7521C13.4369 24.0651 22.3718 25.9103 22.1004 26.2324C21.3552 27.1193 20.5994 28.0452 19.8368 29.011C17.8436 31.5357 5.62394 30.8459 5.62394 30.8459Z" fill="white"/>
<path d="M21.5492 13.6719C23.384 14.7914 27.7089 15.924 31.1575 16.4792C33.3505 14.2339 34.9694 12.5636 36.1281 11.2295C33.5183 10.6615 29.4937 9.72263 27.4778 8.8104L26.5348 8.34326L20.9058 13.1769L21.5492 13.6719Z" fill="#F5F5F5"/>
<path d="M39.9637 0.60518C39.9431 0.404518 39.9093 0.205452 39.8619 0.00939941C39.4254 0.00939941 38.9468 0.025623 38.4465 0.0511269C34.4742 0.257463 28.8484 1.21722 26.9212 1.90688C26.5227 2.04945 26.11 2.21985 25.6977 2.3914C25.1452 2.62091 24.5836 2.87361 24.012 3.14948C24.4229 4.86617 25.313 6.7938 26.0994 7.80107C24.1683 9.30805 22.304 10.8995 20.5122 12.5708C13.9781 18.654 8.9336 25.173 5.48584 30.2386C5.53205 30.4402 5.57354 30.637 5.62446 30.8459C5.62446 30.8459 5.87729 30.8598 6.30495 30.8758C8.01735 28.224 12.8944 21.3258 21.5497 13.6732C23.4664 11.9811 25.4433 10.3593 27.4772 8.8107C29.493 9.72293 33.5177 10.6618 36.1275 11.2298C36.4998 10.8021 36.8277 10.4045 37.1085 10.0382C37.4734 9.56063 37.766 9.12831 37.9903 8.72376C38.4697 7.85905 40.2651 3.3987 39.9637 0.60518Z" fill="white"/>
<path d="M39.862 0.00927916C39.4355 0.00927916 38.9943 0.00582187 38.5472 0C34.0237 2.17221 29.8713 4.86141 26.101 7.80098C25.3151 6.79255 24.4242 4.86608 24.013 3.14936C22.2285 4.02454 20.4984 5.00737 18.8322 6.09242C19.189 8.30754 19.8168 11.166 20.5131 12.5708C7.31016 24.8623 0.159455 38.9619 0.0611496 39.1602C-0.00742886 39.2979 -0.0189061 39.4572 0.0296581 39.6032C0.0779279 39.7492 0.182114 39.8694 0.319271 39.9386C0.456428 40.0075 0.615071 40.019 0.760763 39.9702C0.906161 39.9218 1.02654 39.8168 1.09541 39.6794C1.23286 39.4037 15.1269 11.996 39.9856 0.593506C39.9509 0.397424 39.9097 0.202583 39.862 0.00927916Z" fill="url(#paint0_linear_634_18)"/>
<defs>
<linearGradient id="paint0_linear_634_18" x1="37.5241" y1="-0.734356" x2="-0.154081" y2="39.4469" gradientUnits="userSpaceOnUse">
<stop stop-color="white"/>
<stop offset="1" stop-color="#D2D2D2"/>
</linearGradient>
</defs>
</svg>
