<svg width="30" height="22" viewBox="0 0 30 22" fill="none" xmlns="http://www.w3.org/2000/svg">
<g clip-path="url(#clip0_684_127)">
<path d="M6.8182 21.8917V10.617L3.22348 7.41811L0 5.64294V19.902C0 21.0029 0.916992 21.8917 2.04551 21.8917H6.8182Z" fill="#4285F4"/>
<path d="M23.1816 21.8917H27.9543C29.0863 21.8917 29.9998 20.9996 29.9998 19.902V5.64307L26.3488 7.6763L23.1816 10.617V21.8917Z" fill="#34A853"/>
<path d="M6.81824 10.617L6.3291 6.2116L6.81824 1.99524L15 7.96419L23.1818 1.99524L23.729 5.98396L23.1818 10.617L15 16.5859L6.81824 10.617Z" fill="#EA4335"/>
<path d="M23.1816 1.99524V10.617L29.9998 5.64291V2.99003C29.9998 0.529561 27.1123 -0.873082 25.0909 0.602514L23.1816 1.99524Z" fill="#FBBC04"/>
<path d="M0 5.64296L3.13582 7.93073L6.8182 10.617V1.99529L4.90898 0.602566C2.88398 -0.873144 0 0.529613 0 2.98997V5.64296Z" fill="#C5221F"/>
</g>
<defs>
<clipPath id="clip0_684_127">
<rect width="30" height="22" fill="white"/>
</clipPath>
</defs>
</svg>
