<svg width="58" height="58" viewBox="0 0 58 58" fill="none" xmlns="http://www.w3.org/2000/svg">
<circle cx="29" cy="29" r="29" fill="#0E2B50"/>
<path d="M27.7131 38V24.9091H30.2614V38H27.7131ZM29 22.8892C28.5568 22.8892 28.1761 22.7415 27.858 22.446C27.5455 22.1449 27.3892 21.7869 27.3892 21.3722C27.3892 20.9517 27.5455 20.5937 27.858 20.2983C28.1761 19.9972 28.5568 19.8466 29 19.8466C29.4432 19.8466 29.821 19.9972 30.1335 20.2983C30.4517 20.5937 30.6108 20.9517 30.6108 21.3722C30.6108 21.7869 30.4517 22.1449 30.1335 22.446C29.821 22.7415 29.4432 22.8892 29 22.8892Z" fill="white"/>
</svg>
