<svg width="58" height="58" viewBox="0 0 58 58" fill="none" xmlns="http://www.w3.org/2000/svg">
<circle cx="29" cy="29" r="29" fill="#0E2B50"/>
<path d="M30.9261 20.5455L30.7045 32.9801H28.3438L28.1222 20.5455H30.9261ZM29.5284 38.1619C29.0568 38.1619 28.6534 37.9972 28.3182 37.6676C27.983 37.3324 27.8182 36.929 27.8239 36.4574C27.8182 35.9915 27.983 35.5937 28.3182 35.2642C28.6534 34.929 29.0568 34.7614 29.5284 34.7614C29.9886 34.7614 30.3864 34.929 30.7216 35.2642C31.0568 35.5937 31.2273 35.9915 31.233 36.4574C31.2273 36.7699 31.1449 37.0568 30.9858 37.3182C30.8324 37.5739 30.6278 37.7784 30.3722 37.9318C30.1165 38.0852 29.8352 38.1619 29.5284 38.1619Z" fill="white"/>
</svg>
