<svg width="58" height="58" viewBox="0 0 58 58" fill="none" xmlns="http://www.w3.org/2000/svg">
<circle cx="29" cy="29" r="28.5" fill="#0E2B50" stroke="#0E2B50"/>
<path d="M26.25 38.669H31.75V33.505H26.25V38.669ZM29 41.337C30.894 41.337 31.483 40.31 31.667 39.671H26.333C26.517 40.311 27.106 41.337 29 41.337ZM29 16.004C27.1435 16.004 25.363 16.7415 24.0503 18.0543C22.7375 19.367 22 21.1475 22 23.004C22 26.864 25.945 27.941 26.223 32.504H27.493C27.485 32.478 27.47 32.454 27.465 32.424L25.465 21.427C25.4462 21.3095 25.4697 21.189 25.5315 21.0873C25.5932 20.9855 25.6891 20.909 25.8021 20.8714C25.915 20.8337 26.0377 20.8375 26.1481 20.8819C26.2585 20.9264 26.3496 21.0086 26.405 21.114L26.958 22.22L27.511 21.113C27.5527 21.0303 27.6165 20.9608 27.6953 20.9123C27.7741 20.8637 27.8649 20.838 27.9575 20.838C28.0501 20.838 28.1409 20.8637 28.2197 20.9123C28.2985 20.9608 28.3623 21.0303 28.404 21.113L28.957 22.219L29.51 21.112C29.5511 21.0287 29.6148 20.9586 29.6937 20.9096C29.7726 20.8605 29.8636 20.8345 29.9565 20.8345C30.0494 20.8345 30.1404 20.8605 30.2193 20.9096C30.2982 20.9586 30.3619 21.0287 30.403 21.112L30.957 22.218L31.51 21.111C31.5648 21.0052 31.6556 20.9225 31.7661 20.8777C31.8765 20.8329 31.9993 20.8291 32.1123 20.8668C32.2254 20.9046 32.3212 20.9815 32.3826 21.0836C32.4439 21.1858 32.4668 21.3065 32.447 21.424L30.447 32.422C30.443 32.452 30.427 32.475 30.419 32.5H31.774C32.052 27.938 35.998 26.86 35.998 23C35.998 19.136 32.864 16 28.998 16L29 16.004ZM30.958 23.837C30.8654 23.8374 30.7745 23.8118 30.6957 23.7632C30.6169 23.7146 30.5533 23.6449 30.512 23.562L29.958 22.457L29.405 23.563C29.3629 23.6456 29.2989 23.715 29.2199 23.7635C29.1409 23.812 29.05 23.8377 28.9573 23.8378C28.8646 23.8379 28.7737 23.8124 28.6946 23.7641C28.6155 23.7158 28.5512 23.6465 28.509 23.564L27.956 22.459L27.403 23.565C27.3619 23.6481 27.2983 23.718 27.2195 23.7668C27.1406 23.8156 27.0497 23.8413 26.957 23.841H26.92L28.375 31.841H29.542L30.996 23.841H30.958V23.837Z" fill="#F8F8F8"/>
</svg>
