<svg width="100" height="40" viewBox="0 0 100 40" fill="none" xmlns="http://www.w3.org/2000/svg">
<path d="M74.515 32.9349C73.8503 32.4884 73.252 29.6745 73.748 29.4096C74.3526 29.088 74.3102 30.078 75.596 31.3002C76.8818 32.5235 80.8983 32.0312 81.9131 32.3616C83.03 32.7261 76.6801 34.3894 74.515 32.9349Z" fill="#0E2B50"/>
<path d="M75.5963 31.3012C74.4759 26.8161 75.0128 24.35 75.6504 22.7027C76.7708 19.8042 84.8834 13.3436 90.703 11.3168C92.242 10.7805 97.112 10.0064 99.8819 10.0064C100.365 11.8731 98.9197 15.3832 98.5544 16.0243C97.7274 17.4732 95.6333 19.4448 91.4683 23.6143C91.2619 23.8208 87.2731 23.2461 87.0625 23.4614C86.8308 23.6984 90.3767 24.7255 90.1399 24.9735C89.5349 25.6059 88.9149 26.2735 88.2813 26.9802C88.1404 27.1371 81.47 26.2414 81.3283 26.4024C81.1381 26.6186 87.4756 27.8929 87.2832 28.1153C86.7546 28.7278 86.2184 29.3671 85.6775 30.0341C84.2637 31.7776 75.5963 31.3012 75.5963 31.3012Z" fill="#0E2B50"/>
<path d="M86.8919 19.4415C88.1934 20.2147 91.261 20.9967 93.7072 21.3802C95.2627 19.8296 96.4109 18.6762 97.2328 17.7549C95.3817 17.3627 92.527 16.7143 91.0969 16.0843L90.4282 15.7617L86.4355 19.0997L86.8919 19.4415Z" fill="#0E2B50"/>
<path d="M99.9539 10.4179C99.9392 10.2793 99.9152 10.1419 99.8816 10.0064C99.572 10.0064 99.2326 10.0177 98.8777 10.0353C96.0601 10.1778 92.0697 10.8405 90.7027 11.3168C90.42 11.4153 90.1273 11.5329 89.8349 11.6514C89.443 11.8099 89.0447 11.9844 88.6392 12.1749C88.9307 13.3604 89.562 14.6916 90.1198 15.3872C88.7501 16.4278 87.4278 17.5269 86.1568 18.681C81.5221 22.8818 77.944 27.3837 75.4985 30.8818C75.5313 31.021 75.5607 31.1569 75.5969 31.3012C75.5969 31.3012 75.7762 31.3108 76.0795 31.3218C77.2941 29.4906 80.7534 24.7269 86.8927 19.4423C88.2522 18.2738 89.6545 17.1538 91.0971 16.0844C92.5269 16.7143 95.3816 17.3627 97.2328 17.7549C97.4969 17.4596 97.7294 17.185 97.9286 16.9321C98.1875 16.6023 98.395 16.3037 98.5541 16.0243C98.8942 15.4272 100.168 12.347 99.9539 10.4179Z" fill="#0E2B50"/>
<path d="M99.8817 10.0064C99.5792 10.0064 99.2662 10.004 98.9491 10C95.7406 11.5001 92.7953 13.3571 90.1209 15.3871C89.5635 14.6907 88.9316 13.3604 88.6399 12.1749C87.3742 12.7792 86.147 13.4579 84.9652 14.2072C85.2182 15.7369 85.6635 17.7109 86.1575 18.681C76.7925 27.1692 71.7205 36.9059 71.6508 37.0429C71.6022 37.138 71.594 37.248 71.6285 37.3488C71.6627 37.4496 71.7366 37.5327 71.8339 37.5804C71.9312 37.628 72.0437 37.6359 72.147 37.6022C72.2502 37.5688 72.3356 37.4963 72.3844 37.4014C72.4819 37.211 82.337 18.2841 99.9694 10.4099C99.9447 10.2744 99.9155 10.1399 99.8817 10.0064Z" fill="url(#paint0_linear_42_301)"/>
<path d="M1.58323 4.79673C1.50306 4.52245 1.40286 4.31347 1.28261 4.1698C1.17572 4.01306 1.02874 3.90857 0.841687 3.85633C0.667992 3.79102 0.454213 3.75837 0.200351 3.75837H0.0600586V3.56245H6.31309V3.75837H5.69179C5.29096 3.75837 4.99033 3.8302 4.78991 3.97388C4.5895 4.10449 4.48929 4.32653 4.48929 4.64C4.48929 4.70531 4.49597 4.79673 4.50933 4.91429C4.53605 5.01878 4.56277 5.13633 4.58949 5.26694C4.61622 5.39755 4.64294 5.52163 4.66966 5.63918L6.47342 11.5755C6.62039 12.0588 6.76069 12.542 6.8943 13.0253C7.02791 13.4955 7.15484 13.9918 7.27509 14.5143C7.4087 15.0237 7.54231 15.5788 7.67593 16.1796C7.74273 15.8269 7.82958 15.4351 7.93647 15.0041C8.05672 14.5731 8.17697 14.1029 8.29722 13.5935L10.8024 3.69959H12.025L14.7306 11.5559C14.9043 12.0392 15.0713 12.5682 15.2317 13.1429C15.4054 13.7176 15.5657 14.2727 15.7127 14.8082C15.873 15.3306 15.9999 15.7747 16.0935 16.1404C16.187 15.7094 16.2872 15.2718 16.3941 14.8278C16.501 14.3837 16.6079 13.9461 16.7148 13.5151C16.8216 13.071 16.9219 12.6661 17.0154 12.3004L18.6788 5.73714C18.7457 5.52816 18.7924 5.33878 18.8191 5.16898C18.8459 4.99918 18.8592 4.84898 18.8592 4.71837C18.8592 4.36571 18.7523 4.11755 18.5386 3.97388C18.3248 3.8302 17.9841 3.75837 17.5164 3.75837H16.6747V3.56245H21.0237V3.75837H20.5427C20.2488 3.75837 20.0016 3.80408 19.8012 3.89551C19.6141 3.98694 19.4538 4.1502 19.3202 4.38531C19.1999 4.60735 19.093 4.91429 18.9995 5.30612L15.9331 17.551H14.0492L10.3415 6.38367L7.53563 17.551H5.53146L1.58323 4.79673ZM21.6369 17.551V17.3551H21.8573C22.1246 17.3551 22.3718 17.3159 22.5989 17.2376C22.826 17.1592 23.0064 17.022 23.14 16.8261C23.287 16.6302 23.3605 16.3494 23.3605 15.9837V8.55837C23.3605 8.20571 23.287 7.93796 23.14 7.7551C23.0064 7.55918 22.826 7.42857 22.5989 7.36327C22.3718 7.2849 22.1246 7.24571 21.8573 7.24571H21.7772V7.0498H25.9459V8.83265H25.9859C26.1196 8.44082 26.2933 8.09469 26.507 7.79429C26.7342 7.49388 27.0348 7.25878 27.4089 7.08898C27.783 6.91918 28.244 6.83429 28.7918 6.83429C29.4999 6.83429 30.0411 6.97796 30.4152 7.26531C30.8026 7.53959 30.9964 7.93143 30.9964 8.44082C30.9964 8.93714 30.8026 9.33551 30.4152 9.63592C30.0277 9.92327 29.4599 10.0669 28.7116 10.0669C28.7116 9.44 28.6582 8.9502 28.5513 8.59755C28.4444 8.2449 28.2974 7.99673 28.1104 7.85306C27.9367 7.70939 27.7229 7.63755 27.469 7.63755C27.2018 7.63755 26.968 7.72245 26.7676 7.89225C26.5805 8.04898 26.4269 8.28408 26.3066 8.59755C26.1864 8.91102 26.0995 9.27674 26.0461 9.69469C25.9926 10.1127 25.9659 10.5829 25.9659 11.1053V15.9641C25.9659 16.3298 26.0327 16.6171 26.1663 16.8261C26.2999 17.022 26.4803 17.1592 26.7075 17.2376C26.948 17.3159 27.2018 17.3551 27.469 17.3551H27.95V17.551H21.6369ZM31.6763 17.551V17.3551H31.9369C32.2041 17.3551 32.4513 17.3159 32.6784 17.2376C32.9056 17.1592 33.0859 17.022 33.2196 16.8261C33.3665 16.6302 33.44 16.3559 33.44 16.0033V8.55837C33.44 8.20571 33.3665 7.93796 33.2196 7.7551C33.0859 7.55918 32.9056 7.42857 32.6784 7.36327C32.4513 7.2849 32.2041 7.24571 31.9369 7.24571H31.7565V7.0498H36.0454V15.9641C36.0454 16.3298 36.1123 16.6171 36.2459 16.8261C36.3795 17.022 36.5599 17.1592 36.787 17.2376C37.0275 17.3159 37.2814 17.3551 37.5486 17.3551H37.7891V17.551H31.6763ZM34.6425 5.24735C34.3085 5.24735 34.0212 5.14286 33.7807 4.93388C33.5536 4.7249 33.44 4.39837 33.44 3.95429C33.44 3.48408 33.5536 3.15102 33.7807 2.9551C34.0212 2.75918 34.3085 2.66122 34.6425 2.66122C34.9632 2.66122 35.2438 2.75918 35.4843 2.9551C35.7381 3.15102 35.8651 3.48408 35.8651 3.95429C35.8651 4.41143 35.7381 4.74449 35.4843 4.95347C35.2438 5.14939 34.9632 5.24735 34.6425 5.24735ZM42.9567 17.7469C42.0081 17.7469 41.2799 17.5184 40.7722 17.0612C40.2778 16.6041 40.0306 15.8073 40.0306 14.671V7.24571H38.5075V7.0498C39.0953 7.0498 39.6097 6.99755 40.0507 6.89306C40.4916 6.77551 40.8724 6.59265 41.193 6.34449C41.5004 6.10939 41.7542 5.80898 41.9546 5.44327C42.1551 5.07755 42.3154 4.64653 42.4356 4.1502H42.6361V7.0498H45.2816V7.24571H42.6361V15.4939C42.6361 16.1339 42.7563 16.6106 42.9968 16.9241C43.2507 17.2245 43.6248 17.3747 44.1191 17.3747C44.3062 17.3747 44.5066 17.3551 44.7204 17.3159C44.9342 17.2767 45.1613 17.2114 45.4018 17.12V17.3159C45.2014 17.4073 44.8807 17.4988 44.4398 17.5902C44.0123 17.6947 43.5179 17.7469 42.9567 17.7469ZM46.1989 17.551V17.3551H46.4594C46.7267 17.3551 46.9738 17.3159 47.201 17.2376C47.4281 17.1592 47.6085 17.022 47.7421 16.8261C47.8891 16.6302 47.9626 16.3559 47.9626 16.0033V8.55837C47.9626 8.20571 47.8891 7.93796 47.7421 7.7551C47.6085 7.55918 47.4281 7.42857 47.201 7.36327C46.9738 7.2849 46.7267 7.24571 46.4594 7.24571H46.2791V7.0498H50.568V15.9641C50.568 16.3298 50.6348 16.6171 50.7684 16.8261C50.902 17.022 51.0824 17.1592 51.3095 17.2376C51.55 17.3159 51.8039 17.3551 52.0711 17.3551H52.3116V17.551H46.1989ZM49.1651 5.24735C48.831 5.24735 48.5438 5.14286 48.3033 4.93388C48.0761 4.7249 47.9626 4.39837 47.9626 3.95429C47.9626 3.48408 48.0761 3.15102 48.3033 2.9551C48.5438 2.75918 48.831 2.66122 49.1651 2.66122C49.4857 2.66122 49.7663 2.75918 50.0068 2.9551C50.2607 3.15102 50.3876 3.48408 50.3876 3.95429C50.3876 4.41143 50.2607 4.74449 50.0068 4.95347C49.7663 5.14939 49.4857 5.24735 49.1651 5.24735ZM53.05 17.551V17.3551H53.2705C53.5511 17.3551 53.8049 17.3159 54.0321 17.2376C54.2592 17.1592 54.4396 17.0155 54.5732 16.8065C54.7068 16.5845 54.7736 16.2776 54.7736 15.8857V8.65633C54.7736 8.26449 54.7001 7.97061 54.5532 7.77469C54.4196 7.56571 54.2392 7.42857 54.012 7.36327C53.7983 7.2849 53.5511 7.24571 53.2705 7.24571H53.0901V7.0498H57.359V8.85225H57.3991C57.5728 8.25143 57.8133 7.80735 58.1206 7.52C58.4279 7.23265 58.7753 7.04327 59.1628 6.95184C59.5636 6.86041 59.9444 6.81469 60.3052 6.81469C61.4943 6.81469 62.3761 7.1151 62.9507 7.71592C63.5252 8.31673 63.8125 9.28327 63.8125 10.6155V15.8073C63.8125 16.2384 63.8592 16.5649 63.9528 16.7869C64.0596 16.9959 64.2133 17.1461 64.4137 17.2376C64.6275 17.3159 64.8947 17.3551 65.2154 17.3551H65.2956V17.551H61.207V9.96898C61.207 9.12 61.0734 8.46041 60.8062 7.9902C60.5523 7.52 60.1047 7.2849 59.4634 7.2849C58.929 7.2849 58.5081 7.44816 58.2008 7.77469C57.9068 8.08816 57.693 8.51918 57.5594 9.06776C57.4392 9.60327 57.3791 10.2106 57.3791 10.8898V15.8857C57.3791 16.2776 57.4459 16.5845 57.5795 16.8065C57.7131 17.0155 57.8935 17.1592 58.1206 17.2376C58.3477 17.3159 58.5949 17.3551 58.8622 17.3551H59.0626V17.551H53.05ZM70.53 22.2531C68.9801 22.2531 67.8444 22.031 67.1229 21.5869C66.4148 21.1559 66.0607 20.5616 66.0607 19.8041C66.0607 19.3992 66.1676 19.04 66.3814 18.7265C66.6085 18.4261 66.9626 18.1845 67.4436 18.0016C67.9246 17.8188 68.5592 17.7143 69.3475 17.6882C68.6928 17.5576 68.1918 17.3029 67.8444 16.9241C67.497 16.5453 67.3233 16.1143 67.3233 15.631C67.3233 15.1608 67.4903 14.7559 67.8244 14.4163C68.1584 14.0637 68.6394 13.7829 69.2674 13.5739C68.5592 13.3518 67.9981 12.9731 67.5839 12.4376C67.183 11.902 66.9826 11.2359 66.9826 10.4392C66.9826 9.30286 67.31 8.41469 67.9647 7.77469C68.6327 7.13469 69.6482 6.81469 71.011 6.81469C71.5187 6.81469 71.9797 6.88 72.3939 7.01061C72.8214 7.14122 73.1956 7.32408 73.5162 7.55918C73.7166 7.31102 73.9104 7.10204 74.0974 6.93224C74.2979 6.74939 74.5116 6.61224 74.7388 6.52082C74.9793 6.41633 75.2265 6.36408 75.4803 6.36408C75.8945 6.36408 76.2085 6.46857 76.4223 6.67755C76.6361 6.87347 76.7429 7.12816 76.7429 7.44163C76.7429 7.70286 76.6494 7.94449 76.4624 8.16653C76.2753 8.37551 75.9413 8.48 75.4603 8.48C75.4603 8.08816 75.3801 7.79429 75.2198 7.59837C75.0594 7.40245 74.8323 7.30449 74.5384 7.30449C74.378 7.30449 74.231 7.33714 74.0974 7.40245C73.9638 7.45469 73.8235 7.54612 73.6766 7.67674C74.064 8.00327 74.3647 8.40163 74.5784 8.87184C74.7922 9.32898 74.8991 9.8449 74.8991 10.4196C74.8991 11.3992 74.5851 12.2155 73.9571 12.8686C73.3292 13.5086 72.3471 13.8286 71.011 13.8286C70.7438 13.8286 70.4832 13.8155 70.2294 13.7894C69.9755 13.7502 69.7283 13.698 69.4878 13.6327C69.2072 13.7633 69.0135 13.9135 68.9066 14.0833C68.8131 14.24 68.7663 14.4163 68.7663 14.6122C68.7663 14.9127 68.8799 15.1412 69.107 15.298C69.3342 15.4416 69.6816 15.5135 70.1492 15.5135H72.5141C73.3692 15.5135 74.064 15.6376 74.5985 15.8857C75.1329 16.1208 75.5271 16.4604 75.7809 16.9045C76.0348 17.3486 76.1617 17.871 76.1617 18.4718C76.1617 19.6473 75.7008 20.5682 74.7789 21.2343C73.8703 21.9135 72.454 22.2531 70.53 22.2531ZM70.7505 22.0571C71.4853 22.0571 72.1133 21.9657 72.6344 21.7829C73.1555 21.6131 73.5496 21.3453 73.8169 20.9796C74.0974 20.6139 74.2377 20.1437 74.2377 19.569C74.2377 18.9812 74.0774 18.5371 73.7567 18.2367C73.4361 17.9363 72.935 17.7861 72.2536 17.7861H70.1692C69.7283 17.7861 69.3542 17.8514 69.0469 17.982C68.7396 18.1257 68.4991 18.3478 68.3254 18.6482C68.1517 18.9616 68.0649 19.3535 68.0649 19.8237C68.0649 20.3331 68.1651 20.751 68.3655 21.0776C68.5793 21.4041 68.8799 21.6457 69.2674 21.8025C69.6682 21.9722 70.1626 22.0571 70.7505 22.0571ZM70.9509 13.6327C71.3384 13.6327 71.639 13.5282 71.8528 13.3192C72.0799 13.0971 72.2402 12.751 72.3338 12.2808C72.4273 11.8106 72.4741 11.1902 72.4741 10.4196C72.4741 9.59674 72.4273 8.93714 72.3338 8.44082C72.2402 7.94449 72.0799 7.58531 71.8528 7.36327C71.6256 7.12816 71.3183 7.01061 70.9308 7.01061C70.5701 7.01061 70.2695 7.12816 70.029 7.36327C69.8018 7.59837 69.6415 7.97061 69.548 8.48C69.4544 8.97633 69.4077 9.63592 69.4077 10.4588C69.4077 11.2163 69.4544 11.8302 69.548 12.3004C69.6548 12.7706 69.8219 13.1102 70.049 13.3192C70.2761 13.5282 70.5768 13.6327 70.9509 13.6327ZM30.2841 37.7469C28.801 37.7469 27.5651 37.4465 26.5763 36.8457C25.5876 36.2449 24.8461 35.409 24.3517 34.338C23.8707 33.2539 23.6302 31.9935 23.6302 30.5567C23.6302 29.1331 23.8707 27.8857 24.3517 26.8147C24.8461 25.7306 25.5943 24.8882 26.5964 24.2873C27.6118 23.6735 28.8878 23.3665 30.4244 23.3665C31.3463 23.3665 32.1279 23.471 32.7692 23.68C33.4106 23.8759 33.8983 24.1502 34.2323 24.5029C34.5663 24.8425 34.7333 25.2212 34.7333 25.6392C34.7333 26.1094 34.5329 26.4882 34.1321 26.7755C33.7446 27.0498 33.2035 27.1869 32.5087 27.1869C32.5087 26.3249 32.4219 25.6327 32.2482 25.1102C32.0745 24.5747 31.8072 24.1829 31.4465 23.9347C31.0857 23.6865 30.6114 23.5625 30.0235 23.5625C29.2219 23.5625 28.5605 23.8171 28.0394 24.3265C27.5317 24.8229 27.1576 25.5869 26.9171 26.6188C26.6766 27.6376 26.5563 28.9371 26.5563 30.5176C26.5563 32.1241 26.6966 33.4498 26.9772 34.4947C27.2578 35.5265 27.692 36.2906 28.2799 36.7869C28.8811 37.2833 29.6561 37.5314 30.6047 37.5314C31.2327 37.5314 31.7805 37.4204 32.2482 37.1984C32.7292 36.9763 33.1233 36.6367 33.4306 36.1796C33.7513 35.7225 33.9918 35.1478 34.1521 34.4555C34.3258 34.5208 34.4594 34.6253 34.553 34.769C34.6465 34.8996 34.6933 35.0694 34.6933 35.2784C34.6933 35.5396 34.6131 35.8139 34.4528 36.1012C34.2924 36.3755 34.0386 36.6433 33.6912 36.9045C33.3438 37.1527 32.8895 37.3551 32.3283 37.5118C31.7672 37.6686 31.0857 37.7469 30.2841 37.7469ZM41.4761 37.7469C39.9396 37.7469 38.7237 37.2963 37.8285 36.3951C36.9467 35.4939 36.5058 34.1159 36.5058 32.2612C36.5058 30.4327 36.9267 29.0678 37.7684 28.1665C38.6235 27.2653 39.8795 26.8147 41.5363 26.8147C43.0862 26.8147 44.302 27.2653 45.1839 28.1665C46.0657 29.0678 46.5066 30.4327 46.5066 32.2612C46.5066 34.1159 46.0791 35.4939 45.2239 36.3951C44.3822 37.2963 43.1329 37.7469 41.4761 37.7469ZM41.5162 37.551C42.0908 37.551 42.545 37.3812 42.8791 37.0416C43.2265 36.689 43.4736 36.1274 43.6206 35.3567C43.7676 34.5861 43.8411 33.5543 43.8411 32.2612C43.8411 30.9812 43.7609 29.9625 43.6006 29.2049C43.4536 28.4343 43.2064 27.8792 42.859 27.5396C42.525 27.1869 42.0707 27.0106 41.4962 27.0106C40.935 27.0106 40.4807 27.1869 40.1333 27.5396C39.7993 27.8792 39.5521 28.4343 39.3918 29.2049C39.2448 29.9625 39.1713 30.9812 39.1713 32.2612C39.1713 33.5543 39.2448 34.5861 39.3918 35.3567C39.5521 36.1274 39.7993 36.689 40.1333 37.0416C40.4807 37.3812 40.9417 37.551 41.5162 37.551ZM53.4736 37.7469C51.9371 37.7469 50.7212 37.2963 49.826 36.3951C48.9442 35.4939 48.5033 34.1159 48.5033 32.2612C48.5033 30.4327 48.9242 29.0678 49.7659 28.1665C50.621 27.2653 51.877 26.8147 53.5338 26.8147C55.0837 26.8147 56.2995 27.2653 57.1814 28.1665C58.0632 29.0678 58.5041 30.4327 58.5041 32.2612C58.5041 34.1159 58.0766 35.4939 57.2214 36.3951C56.3797 37.2963 55.1304 37.7469 53.4736 37.7469ZM53.5137 37.551C54.0882 37.551 54.5425 37.3812 54.8766 37.0416C55.2239 36.689 55.4711 36.1274 55.6181 35.3567C55.7651 34.5861 55.8386 33.5543 55.8386 32.2612C55.8386 30.9812 55.7584 29.9625 55.5981 29.2049C55.4511 28.4343 55.2039 27.8792 54.8565 27.5396C54.5225 27.1869 54.0682 27.0106 53.4937 27.0106C52.9325 27.0106 52.4782 27.1869 52.1308 27.5396C51.7968 27.8792 51.5496 28.4343 51.3893 29.2049C51.2423 29.9625 51.1688 30.9812 51.1688 32.2612C51.1688 33.5543 51.2423 34.5861 51.3893 35.3567C51.5496 36.1274 51.7968 36.689 52.1308 37.0416C52.4782 37.3812 52.9392 37.551 53.5137 37.551ZM59.8396 37.551V37.3551H60.0601C60.3406 37.3551 60.5945 37.3159 60.8216 37.2376C61.0488 37.1592 61.2292 37.022 61.3628 36.8261C61.4964 36.6302 61.5632 36.3494 61.5632 35.9837V24.1698C61.5632 23.8171 61.4897 23.5494 61.3427 23.3665C61.2091 23.1706 61.0287 23.04 60.8016 22.9747C60.5745 22.8963 60.3273 22.8571 60.0601 22.8571H59.8797V22.6612H64.1686V30.9878C64.1686 31.1576 64.1686 31.3274 64.1686 31.4971C64.1686 31.6539 64.1686 31.8171 64.1686 31.9869C64.1686 32.1437 64.1619 32.3069 64.1486 32.4767C64.1486 32.6335 64.1486 32.7967 64.1486 32.9665L67.8363 29.0874C68.01 28.9045 68.1503 28.7412 68.2571 28.5976C68.3774 28.4408 68.4642 28.3037 68.5177 28.1861C68.5711 28.0555 68.5979 27.951 68.5979 27.8727C68.5979 27.6376 68.4242 27.4743 68.0768 27.3829C67.7427 27.2914 67.2016 27.2457 66.4534 27.2457V27.0498H71.1432V27.2457C70.9027 27.2457 70.6822 27.2653 70.4818 27.3045C70.2947 27.3306 70.101 27.4025 69.9006 27.52C69.7001 27.6376 69.4663 27.8073 69.1991 28.0294C68.9319 28.2514 68.6179 28.5584 68.2571 28.9502L66.6538 30.6351L70.1411 35.7682C70.4617 36.2514 70.7156 36.6041 70.9027 36.8261C71.1031 37.0482 71.2701 37.1918 71.4037 37.2571C71.5507 37.3225 71.691 37.3551 71.8246 37.3551H71.8647V37.551H71.3636C70.749 37.551 70.2279 37.5314 69.8004 37.4923C69.3862 37.4531 69.0254 37.3812 68.7181 37.2767C68.4108 37.1592 68.1369 36.9959 67.8964 36.7869C67.6692 36.5649 67.4354 36.271 67.1949 35.9053L64.9503 32.4376L64.1686 33.2604V35.9641C64.1686 36.3298 64.2354 36.6171 64.369 36.8261C64.5027 37.022 64.683 37.1592 64.9102 37.2376C65.1507 37.3159 65.4045 37.3551 65.6718 37.3551H65.8521V37.551H59.8396Z" fill="#0E2B50"/>
<defs>
<linearGradient id="paint0_linear_42_301" x1="98.2234" y1="9.49288" x2="72.2579" y2="37.9345" gradientUnits="userSpaceOnUse">
<stop stop-color="#0E2B50"/>
<stop offset="1" stop-color="#403D56" stop-opacity="0.8"/>
</linearGradient>
</defs>
</svg>
