<svg width="100" height="40" viewBox="0 0 100 40" fill="none" xmlns="http://www.w3.org/2000/svg">
<path d="M74.515 32.9349C73.8503 32.4884 73.252 29.6745 73.748 29.4096C74.3526 29.0879 74.3102 30.0779 75.596 31.3002C76.8818 32.5235 80.8983 32.0312 81.9131 32.3616C83.03 32.7261 76.6801 34.3894 74.515 32.9349Z" fill="white"/>
<path d="M75.5963 31.3012C74.4759 26.8161 75.0128 24.35 75.6504 22.7027C76.7708 19.8042 84.8834 13.3436 90.703 11.3168C92.242 10.7805 97.112 10.0065 99.8819 10.0065C100.365 11.8731 98.9197 15.3832 98.5544 16.0243C97.7274 17.4732 95.6333 19.4448 91.4683 23.6143C91.2619 23.8208 87.2731 23.2461 87.0625 23.4614C86.8308 23.6984 90.3767 24.7255 90.1399 24.9735C89.5349 25.6059 88.9149 26.2735 88.2813 26.9802C88.1404 27.1372 81.47 26.2414 81.3283 26.4025C81.1381 26.6186 87.4756 27.8929 87.2832 28.1153C86.7546 28.7278 86.2184 29.3672 85.6775 30.0341C84.2637 31.7776 75.5963 31.3012 75.5963 31.3012Z" fill="white"/>
<path d="M86.8919 19.4415C88.1934 20.2146 91.261 20.9967 93.7072 21.3802C95.2627 19.8296 96.4109 18.6762 97.2328 17.7549C95.3817 17.3627 92.527 16.7143 91.0969 16.0843L90.4282 15.7617L86.4355 19.0997L86.8919 19.4415Z" fill="#F5F5F5"/>
<path d="M99.9539 10.4179C99.9392 10.2793 99.9152 10.1419 99.8816 10.0065C99.572 10.0065 99.2326 10.0177 98.8777 10.0353C96.0601 10.1778 92.0697 10.8406 90.7027 11.3168C90.42 11.4153 90.1273 11.5329 89.8349 11.6514C89.443 11.8099 89.0447 11.9844 88.6392 12.1749C88.9307 13.3604 89.562 14.6916 90.1198 15.3872C88.7501 16.4278 87.4278 17.5269 86.1568 18.681C81.5221 22.8819 77.944 27.3837 75.4985 30.8819C75.5313 31.021 75.5607 31.157 75.5969 31.3012C75.5969 31.3012 75.7762 31.3108 76.0795 31.3219C77.2941 29.4906 80.7534 24.727 86.8927 19.4423C88.2522 18.2738 89.6545 17.1538 91.0971 16.0844C92.5269 16.7143 95.3816 17.3627 97.2328 17.7549C97.4969 17.4596 97.7294 17.185 97.9286 16.9321C98.1875 16.6023 98.395 16.3037 98.5541 16.0243C98.8942 15.4272 100.168 12.347 99.9539 10.4179Z" fill="white"/>
<path d="M99.8817 10.0064C99.5792 10.0064 99.2662 10.004 98.9491 10C95.7406 11.5001 92.7953 13.3571 90.1209 15.3871C89.5635 14.6907 88.9316 13.3604 88.6399 12.1749C87.3742 12.7792 86.147 13.4579 84.9652 14.2072C85.2182 15.7369 85.6635 17.7109 86.1575 18.681C76.7925 27.1692 71.7205 36.9059 71.6508 37.0429C71.6022 37.138 71.594 37.248 71.6285 37.3488C71.6627 37.4496 71.7366 37.5327 71.8339 37.5804C71.9312 37.628 72.0437 37.6359 72.147 37.6022C72.2502 37.5688 72.3356 37.4963 72.3844 37.4014C72.4819 37.211 82.337 18.2841 99.9694 10.4099C99.9447 10.2744 99.9155 10.1399 99.8817 10.0064Z" fill="url(#paint0_linear_34_189)"/>
<path d="M1.58323 4.79676C1.50306 4.52248 1.40286 4.3135 1.28261 4.16983C1.17572 4.01309 1.02874 3.9086 0.841687 3.85636C0.667992 3.79105 0.454213 3.7584 0.200351 3.7584H0.0600586V3.56248H6.31309V3.7584H5.69179C5.29096 3.7584 4.99033 3.83023 4.78991 3.97391C4.5895 4.10452 4.48929 4.32656 4.48929 4.64003C4.48929 4.70534 4.49597 4.79677 4.50933 4.91432C4.53605 5.01881 4.56277 5.13636 4.5895 5.26697C4.61622 5.39758 4.64294 5.52166 4.66966 5.63921L6.47342 11.5755C6.62039 12.0588 6.76069 12.5421 6.8943 13.0253C7.02791 13.4955 7.15484 13.9919 7.27509 14.5143C7.4087 15.0237 7.54231 15.5788 7.67593 16.1796C7.74273 15.827 7.82958 15.4351 7.93647 15.0041C8.05672 14.5731 8.17697 14.1029 8.29722 13.5935L10.8024 3.69962H12.025L14.7306 11.5559C14.9043 12.0392 15.0713 12.5682 15.2317 13.1429C15.4054 13.7176 15.5657 14.2727 15.7127 14.8082C15.873 15.3306 15.9999 15.7747 16.0935 16.1404C16.187 15.7094 16.2872 15.2719 16.3941 14.8278C16.501 14.3837 16.6079 13.9462 16.7148 13.5151C16.8216 13.071 16.9219 12.6662 17.0154 12.3004L18.6788 5.73717C18.7457 5.52819 18.7924 5.33881 18.8191 5.16901C18.8459 4.99921 18.8592 4.84901 18.8592 4.7184C18.8592 4.36574 18.7523 4.11758 18.5386 3.97391C18.3248 3.83023 17.9841 3.7584 17.5164 3.7584H16.6747V3.56248H21.0237V3.7584H20.5427C20.2488 3.7584 20.0016 3.80411 19.8012 3.89554C19.6141 3.98697 19.4538 4.15023 19.3202 4.38534C19.1999 4.60738 19.093 4.91432 18.9995 5.30615L15.9331 17.5511H14.0492L10.3415 6.3837L7.53563 17.5511H5.53146L1.58323 4.79676ZM21.6369 17.5511V17.3551H21.8573C22.1246 17.3551 22.3717 17.3159 22.5989 17.2376C22.826 17.1592 23.0064 17.0221 23.14 16.8262C23.287 16.6302 23.3605 16.3494 23.3605 15.9837V8.5584C23.3605 8.20574 23.287 7.93799 23.14 7.75513C23.0064 7.55921 22.826 7.4286 22.5989 7.3633C22.3717 7.28493 22.1246 7.24574 21.8573 7.24574H21.7772V7.04983H25.9459V8.83268H25.9859C26.1196 8.44085 26.2933 8.09472 26.507 7.79432C26.7342 7.49391 27.0348 7.25881 27.4089 7.08901C27.783 6.91921 28.244 6.83432 28.7918 6.83432C29.4999 6.83432 30.0411 6.97799 30.4152 7.26534C30.8026 7.53962 30.9964 7.93146 30.9964 8.44085C30.9964 8.93717 30.8026 9.33554 30.4152 9.63595C30.0277 9.9233 29.4599 10.067 28.7116 10.067C28.7116 9.44003 28.6582 8.95023 28.5513 8.59758C28.4444 8.24493 28.2974 7.99676 28.1104 7.85309C27.9367 7.70942 27.7229 7.63758 27.469 7.63758C27.2018 7.63758 26.968 7.72248 26.7676 7.89227C26.5805 8.04901 26.4269 8.28411 26.3066 8.59758C26.1864 8.91105 26.0995 9.27676 26.0461 9.69472C25.9926 10.1127 25.9659 10.5829 25.9659 11.1053V15.9641C25.9659 16.3298 26.0327 16.6172 26.1663 16.8262C26.2999 17.0221 26.4803 17.1592 26.7075 17.2376C26.948 17.3159 27.2018 17.3551 27.469 17.3551H27.95V17.5511H21.6369ZM31.6763 17.5511V17.3551H31.9369C32.2041 17.3551 32.4513 17.3159 32.6784 17.2376C32.9056 17.1592 33.0859 17.0221 33.2196 16.8262C33.3665 16.6302 33.44 16.3559 33.44 16.0033V8.5584C33.44 8.20574 33.3665 7.93799 33.2196 7.75513C33.0859 7.55921 32.9056 7.4286 32.6784 7.3633C32.4513 7.28493 32.2041 7.24574 31.9369 7.24574H31.7565V7.04983H36.0454V15.9641C36.0454 16.3298 36.1123 16.6172 36.2459 16.8262C36.3795 17.0221 36.5599 17.1592 36.787 17.2376C37.0275 17.3159 37.2814 17.3551 37.5486 17.3551H37.7891V17.5511H31.6763ZM34.6425 5.24738C34.3085 5.24738 34.0212 5.14289 33.7807 4.93391C33.5536 4.72493 33.44 4.3984 33.44 3.95432C33.44 3.48411 33.5536 3.15105 33.7807 2.95513C34.0212 2.75921 34.3085 2.66125 34.6425 2.66125C34.9632 2.66125 35.2438 2.75921 35.4843 2.95513C35.7381 3.15105 35.8651 3.48411 35.8651 3.95432C35.8651 4.41146 35.7381 4.74452 35.4843 4.9535C35.2438 5.14942 34.9632 5.24738 34.6425 5.24738ZM42.9567 17.747C42.0081 17.747 41.2799 17.5184 40.7722 17.0613C40.2778 16.6041 40.0306 15.8074 40.0306 14.6711V7.24574H38.5075V7.04983C39.0953 7.04983 39.6097 6.99758 40.0507 6.89309C40.4916 6.77554 40.8724 6.59268 41.193 6.34452C41.5004 6.10942 41.7542 5.80901 41.9546 5.4433C42.1551 5.07758 42.3154 4.64656 42.4356 4.15023H42.6361V7.04983H45.2816V7.24574H42.6361V15.4939C42.6361 16.1339 42.7563 16.6106 42.9968 16.9241C43.2507 17.2245 43.6248 17.3747 44.1191 17.3747C44.3062 17.3747 44.5066 17.3551 44.7204 17.3159C44.9342 17.2768 45.1613 17.2115 45.4018 17.12V17.3159C45.2014 17.4074 44.8807 17.4988 44.4398 17.5902C44.0123 17.6947 43.5179 17.747 42.9567 17.747ZM46.1989 17.5511V17.3551H46.4594C46.7267 17.3551 46.9738 17.3159 47.201 17.2376C47.4281 17.1592 47.6085 17.0221 47.7421 16.8262C47.8891 16.6302 47.9626 16.3559 47.9626 16.0033V8.5584C47.9626 8.20574 47.8891 7.93799 47.7421 7.75513C47.6085 7.55921 47.4281 7.4286 47.201 7.3633C46.9738 7.28493 46.7267 7.24574 46.4594 7.24574H46.2791V7.04983H50.568V15.9641C50.568 16.3298 50.6348 16.6172 50.7684 16.8262C50.902 17.0221 51.0824 17.1592 51.3095 17.2376C51.55 17.3159 51.8039 17.3551 52.0711 17.3551H52.3116V17.5511H46.1989ZM49.1651 5.24738C48.831 5.24738 48.5438 5.14289 48.3033 4.93391C48.0761 4.72493 47.9626 4.3984 47.9626 3.95432C47.9626 3.48411 48.0761 3.15105 48.3033 2.95513C48.5438 2.75921 48.831 2.66125 49.1651 2.66125C49.4857 2.66125 49.7663 2.75921 50.0068 2.95513C50.2607 3.15105 50.3876 3.48411 50.3876 3.95432C50.3876 4.41146 50.2607 4.74452 50.0068 4.9535C49.7663 5.14942 49.4857 5.24738 49.1651 5.24738ZM53.05 17.5511V17.3551H53.2705C53.5511 17.3551 53.8049 17.3159 54.0321 17.2376C54.2592 17.1592 54.4396 17.0155 54.5732 16.8066C54.7068 16.5845 54.7736 16.2776 54.7736 15.8857V8.65636C54.7736 8.26452 54.7001 7.97064 54.5532 7.77472C54.4196 7.56574 54.2392 7.4286 54.012 7.3633C53.7983 7.28493 53.5511 7.24574 53.2705 7.24574H53.0901V7.04983H57.359V8.85227H57.3991C57.5728 8.25146 57.8133 7.80738 58.1206 7.52003C58.4279 7.23268 58.7753 7.0433 59.1628 6.95187C59.5636 6.86044 59.9444 6.81472 60.3052 6.81472C61.4943 6.81472 62.3761 7.11513 62.9507 7.71595C63.5252 8.31676 63.8125 9.2833 63.8125 10.6155V15.8074C63.8125 16.2384 63.8592 16.5649 63.9528 16.787C64.0597 16.9959 64.2133 17.1462 64.4137 17.2376C64.6275 17.3159 64.8947 17.3551 65.2154 17.3551H65.2956V17.5511H61.207V9.96901C61.207 9.12003 61.0734 8.46044 60.8062 7.99023C60.5523 7.52003 60.1047 7.28493 59.4634 7.28493C58.929 7.28493 58.5081 7.44819 58.2008 7.77472C57.9068 8.08819 57.693 8.51921 57.5594 9.06778C57.4392 9.6033 57.3791 10.2106 57.3791 10.8898V15.8857C57.3791 16.2776 57.4459 16.5845 57.5795 16.8066C57.7131 17.0155 57.8935 17.1592 58.1206 17.2376C58.3477 17.3159 58.5949 17.3551 58.8622 17.3551H59.0626V17.5511H53.05ZM70.53 22.2531C68.9801 22.2531 67.8444 22.031 67.1229 21.587C66.4148 21.1559 66.0607 20.5617 66.0607 19.8041C66.0607 19.3992 66.1676 19.04 66.3814 18.7266C66.6085 18.4262 66.9626 18.1845 67.4436 18.0017C67.9246 17.8188 68.5592 17.7143 69.3475 17.6882C68.6928 17.5576 68.1918 17.3029 67.8444 16.9241C67.497 16.5453 67.3233 16.1143 67.3233 15.6311C67.3233 15.1608 67.4903 14.7559 67.8244 14.4164C68.1584 14.0637 68.6394 13.7829 69.2674 13.5739C68.5592 13.3519 67.9981 12.9731 67.5839 12.4376C67.183 11.9021 66.9826 11.2359 66.9826 10.4392C66.9826 9.30289 67.31 8.41472 67.9647 7.77472C68.6327 7.13472 69.6482 6.81472 71.011 6.81472C71.5187 6.81472 71.9797 6.88003 72.3939 7.01064C72.8214 7.14125 73.1956 7.32411 73.5162 7.55921C73.7166 7.31105 73.9104 7.10207 74.0974 6.93227C74.2979 6.74942 74.5116 6.61227 74.7388 6.52085C74.9793 6.41636 75.2264 6.36411 75.4803 6.36411C75.8945 6.36411 76.2085 6.4686 76.4223 6.67758C76.6361 6.8735 76.7429 7.12819 76.7429 7.44166C76.7429 7.70289 76.6494 7.94452 76.4624 8.16656C76.2753 8.37554 75.9413 8.48003 75.4603 8.48003C75.4603 8.08819 75.3801 7.79432 75.2198 7.5984C75.0594 7.40248 74.8323 7.30452 74.5384 7.30452C74.378 7.30452 74.231 7.33717 74.0974 7.40248C73.9638 7.45472 73.8235 7.54615 73.6766 7.67676C74.064 8.0033 74.3647 8.40166 74.5784 8.87187C74.7922 9.32901 74.8991 9.84493 74.8991 10.4196C74.8991 11.3992 74.5851 12.2155 73.9571 12.8686C73.3292 13.5086 72.3471 13.8286 71.011 13.8286C70.7438 13.8286 70.4832 13.8155 70.2294 13.7894C69.9755 13.7502 69.7283 13.698 69.4878 13.6327C69.2072 13.7633 69.0135 13.9135 68.9066 14.0833C68.8131 14.24 68.7663 14.4164 68.7663 14.6123C68.7663 14.9127 68.8799 15.1413 69.107 15.298C69.3342 15.4417 69.6816 15.5135 70.1492 15.5135H72.5141C73.3692 15.5135 74.064 15.6376 74.5985 15.8857C75.1329 16.1208 75.5271 16.4604 75.7809 16.9045C76.0348 17.3486 76.1617 17.871 76.1617 18.4719C76.1617 19.6474 75.7008 20.5682 74.7789 21.2343C73.8703 21.9135 72.454 22.2531 70.53 22.2531ZM70.7505 22.0572C71.4853 22.0572 72.1133 21.9657 72.6344 21.7829C73.1555 21.6131 73.5496 21.3453 73.8168 20.9796C74.0974 20.6139 74.2377 20.1437 74.2377 19.569C74.2377 18.9813 74.0774 18.5372 73.7567 18.2368C73.4361 17.9364 72.935 17.7862 72.2536 17.7862H70.1693C69.7283 17.7862 69.3542 17.8515 69.0469 17.9821C68.7396 18.1257 68.4991 18.3478 68.3254 18.6482C68.1517 18.9617 68.0649 19.3535 68.0649 19.8237C68.0649 20.3331 68.1651 20.751 68.3655 21.0776C68.5793 21.4041 68.8799 21.6457 69.2674 21.8025C69.6682 21.9723 70.1626 22.0572 70.7505 22.0572ZM70.9509 13.6327C71.3384 13.6327 71.639 13.5282 71.8528 13.3192C72.0799 13.0972 72.2402 12.751 72.3338 12.2808C72.4273 11.8106 72.4741 11.1902 72.4741 10.4196C72.4741 9.59676 72.4273 8.93717 72.3338 8.44085C72.2402 7.94452 72.0799 7.58534 71.8528 7.3633C71.6256 7.12819 71.3183 7.01064 70.9308 7.01064C70.5701 7.01064 70.2695 7.12819 70.029 7.3633C69.8018 7.5984 69.6415 7.97064 69.548 8.48003C69.4544 8.97636 69.4077 9.63595 69.4077 10.4588C69.4077 11.2164 69.4544 11.8302 69.548 12.3004C69.6548 12.7706 69.8219 13.1102 70.049 13.3192C70.2761 13.5282 70.5768 13.6327 70.9509 13.6327ZM30.2841 37.747C28.801 37.747 27.5651 37.4466 26.5763 36.8457C25.5876 36.2449 24.8461 35.409 24.3517 34.338C23.8707 33.2539 23.6302 31.9935 23.6302 30.5568C23.6302 29.1331 23.8707 27.8857 24.3517 26.8147C24.8461 25.7306 25.5943 24.8882 26.5964 24.2874C27.6118 23.6735 28.8878 23.3666 30.4244 23.3666C31.3463 23.3666 32.1279 23.4711 32.7692 23.68C33.4106 23.8759 33.8983 24.1502 34.2323 24.5029C34.5663 24.8425 34.7333 25.2213 34.7333 25.6392C34.7333 26.1094 34.5329 26.4882 34.1321 26.7755C33.7446 27.0498 33.2035 27.187 32.5087 27.187C32.5087 26.3249 32.4219 25.6327 32.2482 25.1102C32.0745 24.5747 31.8072 24.1829 31.4465 23.9347C31.0857 23.6866 30.6114 23.5625 30.0235 23.5625C29.2219 23.5625 28.5605 23.8172 28.0394 24.3266C27.5317 24.8229 27.1576 25.587 26.9171 26.6188C26.6766 27.6376 26.5563 28.9372 26.5563 30.5176C26.5563 32.1241 26.6966 33.4498 26.9772 34.4947C27.2578 35.5266 27.692 36.2906 28.2799 36.787C28.8811 37.2833 29.6561 37.5315 30.6047 37.5315C31.2327 37.5315 31.7805 37.4204 32.2482 37.1984C32.7292 36.9764 33.1233 36.6368 33.4306 36.1796C33.7513 35.7225 33.9918 35.1478 34.1521 34.4555C34.3258 34.5208 34.4594 34.6253 34.553 34.769C34.6465 34.8996 34.6933 35.0694 34.6933 35.2784C34.6933 35.5396 34.6131 35.8139 34.4528 36.1013C34.2924 36.3755 34.0386 36.6433 33.6912 36.9045C33.3438 37.1527 32.8895 37.3551 32.3283 37.5119C31.7672 37.6686 31.0857 37.747 30.2841 37.747ZM41.4761 37.747C39.9396 37.747 38.7237 37.2964 37.8285 36.3951C36.9467 35.4939 36.5058 34.1159 36.5058 32.2613C36.5058 30.4327 36.9267 29.0678 37.7684 28.1666C38.6235 27.2653 39.8795 26.8147 41.5363 26.8147C43.0862 26.8147 44.302 27.2653 45.1839 28.1666C46.0657 29.0678 46.5066 30.4327 46.5066 32.2613C46.5066 34.1159 46.0791 35.4939 45.2239 36.3951C44.3822 37.2964 43.1329 37.747 41.4761 37.747ZM41.5162 37.5511C42.0908 37.5511 42.545 37.3813 42.8791 37.0417C43.2265 36.689 43.4736 36.1274 43.6206 35.3568C43.7676 34.5862 43.8411 33.5543 43.8411 32.2613C43.8411 30.9813 43.7609 29.9625 43.6006 29.2049C43.4536 28.4343 43.2064 27.8792 42.859 27.5396C42.525 27.187 42.0707 27.0106 41.4962 27.0106C40.935 27.0106 40.4807 27.187 40.1333 27.5396C39.7993 27.8792 39.5521 28.4343 39.3918 29.2049C39.2448 29.9625 39.1713 30.9813 39.1713 32.2613C39.1713 33.5543 39.2448 34.5862 39.3918 35.3568C39.5521 36.1274 39.7993 36.689 40.1333 37.0417C40.4807 37.3813 40.9417 37.5511 41.5162 37.5511ZM53.4736 37.747C51.9371 37.747 50.7212 37.2964 49.826 36.3951C48.9442 35.4939 48.5033 34.1159 48.5033 32.2613C48.5033 30.4327 48.9242 29.0678 49.7659 28.1666C50.621 27.2653 51.877 26.8147 53.5338 26.8147C55.0837 26.8147 56.2995 27.2653 57.1814 28.1666C58.0632 29.0678 58.5041 30.4327 58.5041 32.2613C58.5041 34.1159 58.0766 35.4939 57.2214 36.3951C56.3797 37.2964 55.1304 37.747 53.4736 37.747ZM53.5137 37.5511C54.0882 37.5511 54.5425 37.3813 54.8766 37.0417C55.2239 36.689 55.4711 36.1274 55.6181 35.3568C55.7651 34.5862 55.8386 33.5543 55.8386 32.2613C55.8386 30.9813 55.7584 29.9625 55.5981 29.2049C55.4511 28.4343 55.2039 27.8792 54.8565 27.5396C54.5225 27.187 54.0682 27.0106 53.4937 27.0106C52.9325 27.0106 52.4782 27.187 52.1308 27.5396C51.7968 27.8792 51.5496 28.4343 51.3893 29.2049C51.2423 29.9625 51.1688 30.9813 51.1688 32.2613C51.1688 33.5543 51.2423 34.5862 51.3893 35.3568C51.5496 36.1274 51.7968 36.689 52.1308 37.0417C52.4782 37.3813 52.9392 37.5511 53.5137 37.5511ZM59.8396 37.5511V37.3551H60.0601C60.3406 37.3551 60.5945 37.3159 60.8216 37.2376C61.0488 37.1592 61.2292 37.0221 61.3628 36.8262C61.4964 36.6302 61.5632 36.3494 61.5632 35.9837V24.1698C61.5632 23.8172 61.4897 23.5494 61.3427 23.3666C61.2091 23.1706 61.0287 23.04 60.8016 22.9747C60.5745 22.8964 60.3273 22.8572 60.0601 22.8572H59.8797V22.6613H64.1686V30.9878C64.1686 31.1576 64.1686 31.3274 64.1686 31.4972C64.1686 31.6539 64.1686 31.8172 64.1686 31.987C64.1686 32.1437 64.1619 32.307 64.1486 32.4768C64.1486 32.6335 64.1486 32.7968 64.1486 32.9666L67.8363 29.0874C68.01 28.9045 68.1503 28.7413 68.2571 28.5976C68.3774 28.4408 68.4642 28.3037 68.5177 28.1862C68.5711 28.0555 68.5979 27.951 68.5979 27.8727C68.5979 27.6376 68.4242 27.4743 68.0768 27.3829C67.7427 27.2915 67.2016 27.2457 66.4534 27.2457V27.0498H71.1432V27.2457C70.9026 27.2457 70.6822 27.2653 70.4818 27.3045C70.2947 27.3306 70.101 27.4025 69.9006 27.52C69.7001 27.6376 69.4663 27.8074 69.1991 28.0294C68.9319 28.2515 68.6179 28.5584 68.2571 28.9502L66.6538 30.6351L70.1411 35.7682C70.4617 36.2515 70.7156 36.6041 70.9026 36.8262C71.1031 37.0482 71.2701 37.1919 71.4037 37.2572C71.5507 37.3225 71.691 37.3551 71.8246 37.3551H71.8647V37.5511H71.3636C70.749 37.5511 70.2279 37.5315 69.8004 37.4923C69.3862 37.4531 69.0254 37.3813 68.7181 37.2768C68.4108 37.1592 68.1369 36.9959 67.8964 36.787C67.6693 36.5649 67.4354 36.2711 67.1949 35.9053L64.9502 32.4376L64.1686 33.2604V35.9641C64.1686 36.3298 64.2354 36.6172 64.369 36.8262C64.5027 37.0221 64.683 37.1592 64.9102 37.2376C65.1507 37.3159 65.4045 37.3551 65.6718 37.3551H65.8521V37.5511H59.8396Z" fill="white"/>
<defs>
<linearGradient id="paint0_linear_34_189" x1="98.2234" y1="9.49288" x2="72.2579" y2="37.9345" gradientUnits="userSpaceOnUse">
<stop stop-color="white"/>
<stop offset="1" stop-color="#D2D2D2"/>
</linearGradient>
</defs>
</svg>
