<svg width="24" height="24" viewBox="0 0 24 24" fill="none" xmlns="http://www.w3.org/2000/svg">
<path d="M23.6048 21.7204L18.3343 16.4476C19.9146 14.3883 20.6524 11.805 20.398 9.22179C20.1436 6.63853 18.9162 4.24875 16.9646 2.53722C15.0131 0.825684 12.4836 -0.0794314 9.88919 0.00547601C7.29483 0.0903834 4.8299 1.15896 2.99443 2.99443C1.15896 4.8299 0.0903834 7.29483 0.00547601 9.88919C-0.0794314 12.4836 0.825684 15.0131 2.53722 16.9646C4.24875 18.9162 6.63853 20.1436 9.22179 20.398C11.805 20.6524 14.3883 19.9146 16.4476 18.3343L21.7226 23.6104C21.8465 23.7342 21.9935 23.8325 22.1554 23.8996C22.3172 23.9666 22.4907 24.0011 22.6659 24.0011C22.8411 24.0011 23.0146 23.9666 23.1764 23.8996C23.3383 23.8325 23.4854 23.7342 23.6093 23.6104C23.7331 23.4865 23.8314 23.3394 23.8985 23.1776C23.9655 23.0157 24 22.8422 24 22.667C24 22.4918 23.9655 22.3184 23.8985 22.1565C23.8314 21.9946 23.7331 21.8476 23.6093 21.7237L23.6048 21.7204ZM2.68594 10.2327C2.68594 8.74007 3.12855 7.28099 3.9578 6.03994C4.78704 4.79888 5.96568 3.8316 7.34467 3.2604C8.72365 2.68921 10.241 2.53976 11.705 2.83095C13.1689 3.12214 14.5136 3.8409 15.569 4.89633C16.6244 5.95176 17.3432 7.29646 17.6344 8.76038C17.9256 10.2243 17.7761 11.7417 17.2049 13.1207C16.6338 14.4997 15.6665 15.6783 14.4254 16.5076C13.1844 17.3368 11.7253 17.7794 10.2327 17.7794C8.23179 17.7773 6.31344 16.9816 4.8986 15.5667C3.48376 14.1519 2.688 12.2336 2.68594 10.2327Z" fill="#929292"/>
</svg>
