<svg width="28" height="40" viewBox="0 0 28 40" fill="none" xmlns="http://www.w3.org/2000/svg">
<path d="M13.8036 0C12.0136 0 10.3839 0.92257 9.53959 2.36462L9.16807 2.99964L8.52635 2.65046C7.92686 2.32097 7.24293 2.14639 6.55899 2.14639C4.16945 2.14639 2.22742 4.16355 2.22742 6.70019C2.22742 8.9681 3.79793 10.8595 5.90039 11.2018L6.54211 11.3045V15.8745C11.431 14.9246 16.3367 14.8818 21.234 15.8745V9.9095L21.6393 9.68699C22.9649 8.97666 23.8431 7.4533 23.8431 5.73739C23.8431 3.27264 22.0952 1.36246 20.0097 1.36246C19.4608 1.36246 18.912 1.50025 18.4138 1.7664L17.8903 2.04027L17.5019 1.60466C16.59 0.59736 15.239 0 13.8036 0ZM13.888 16.6704C11.7265 16.6704 9.57336 16.8758 7.4118 17.2695C7.33581 17.783 7.30203 18.3136 7.30203 18.8613C7.30203 21.3432 8.07884 23.5854 9.29472 25.1687C10.5106 26.752 12.1233 27.6762 13.888 27.6762C15.6528 27.6762 17.2655 26.752 18.4814 25.1687C19.6972 23.5854 20.4741 21.3432 20.4741 18.8613C20.4741 18.3136 20.4318 17.7745 20.3643 17.261C18.2027 16.8587 16.0496 16.6619 13.888 16.6704ZM9.89422 27.8731L2.36252 30.4149L0 40H19.4271L18.2027 31.2963L19.7057 31.0738L20.9638 40H27.7778L25.4136 30.4149L17.8819 27.8731C16.7167 28.7203 15.3488 29.2167 13.888 29.2167C12.4273 29.2167 11.0594 28.7203 9.89422 27.8731ZM15.7456 32.3832C15.8565 32.3832 15.9663 32.4054 16.0688 32.4484C16.1712 32.4914 16.2643 32.5544 16.3427 32.6339C16.4211 32.7133 16.4833 32.8077 16.5257 32.9115C16.5682 33.0154 16.59 33.1267 16.59 33.2391C16.59 33.3514 16.5682 33.4627 16.5257 33.5666C16.4833 33.6704 16.4211 33.7648 16.3427 33.8442C16.2643 33.9237 16.1712 33.9867 16.0688 34.0297C15.9663 34.0727 15.8565 34.0949 15.7456 34.0949C15.6348 34.0949 15.525 34.0727 15.4225 34.0297C15.3201 33.9867 15.227 33.9237 15.1486 33.8442C15.0702 33.7648 15.008 33.6704 14.9655 33.5666C14.9231 33.4627 14.9013 33.3514 14.9013 33.2391C14.9013 33.1267 14.9231 33.0154 14.9655 32.9115C15.008 32.8077 15.0702 32.7133 15.1486 32.6339C15.227 32.5544 15.3201 32.4914 15.4225 32.4484C15.525 32.4054 15.6348 32.3832 15.7456 32.3832ZM16.3367 36.32C16.5606 36.32 16.7754 36.4102 16.9337 36.5707C17.0921 36.7311 17.1811 36.9488 17.1811 37.1758C17.1811 37.4028 17.0921 37.6205 16.9337 37.781C16.7754 37.9415 16.5606 38.0316 16.3367 38.0316C16.1128 38.0316 15.898 37.9415 15.7396 37.781C15.5813 37.6205 15.4923 37.4028 15.4923 37.1758C15.4923 36.9488 15.5813 36.7311 15.7396 36.5707C15.898 36.4102 16.1128 36.32 16.3367 36.32Z" fill="#F8F8F8"/>
</svg>
